<svg width="180" height="32" viewBox="0 0 180 32" fill="none" xmlns="http://www.w3.org/2000/svg">
<g clip-path="url(#clip0)">
<path d="M12.6409 9.85618H7.73481V8.08822C7.73481 6.58546 8.0884 5.56888 8.79558 5.0385C9.76795 4.33132 11.4033 4.33132 12.5967 4.50811V0.0440232C10.7403 -0.132772 8.1768 -0.000175603 6.18784 1.50259C4.86188 2.47496 3.31492 4.41971 3.31492 8.13242V9.90038H0V14.0109H3.27072V31.7346H7.69061V13.9667H12.5967V9.85618H12.6409Z" fill="#ED6C00"/>
<path d="M93.7457 9.06055H89.3258V31.4694H93.7457V9.06055Z" fill="#ED6C00"/>
<path d="M71.8233 8.70703C69.1272 8.70703 66.6521 9.9004 65.0167 11.8452C63.3813 9.9446 60.9504 8.70703 58.2101 8.70703C56.3979 8.70703 54.6742 9.23742 53.2598 10.2098V9.10482H49.1493V31.3369H49.1935V31.5579H53.6134V17.6794C53.6134 15.1601 55.6465 13.1269 58.1659 13.1269C60.6852 13.1269 62.7184 15.1601 62.7184 17.6794V31.5137H62.8068H67.1824H67.2708V17.6794C67.2708 15.1601 69.304 13.1269 71.8233 13.1269C74.3427 13.1269 76.3758 15.1601 76.3758 17.6794V31.5137H80.7957V17.6794C80.7957 12.7291 76.7736 8.70703 71.8233 8.70703Z" fill="#ED6C00"/>
<path d="M140.774 8.57422H139.845C134.365 8.57422 129.901 13.0383 129.901 18.519V31.6018H134.321V18.519C134.321 15.4692 136.796 12.9941 139.845 12.9941H140.774C143.823 12.9941 146.298 15.4692 146.298 18.519V31.6018H150.718V18.519C150.718 13.0383 146.254 8.57422 140.774 8.57422Z" fill="#727171"/>
<path d="M36.9502 9.01621V11.6681C34.8729 9.76759 32.0884 8.57422 29.0386 8.57422C22.5856 8.57422 17.3259 13.8339 17.3259 20.2869C17.3259 26.74 22.5856 31.9996 29.0386 31.9996C32.0884 31.9996 34.8729 30.8505 36.9502 28.9057V31.4692H41.0607V9.01621H36.9502ZM29.0386 27.5355C25.0165 27.5355 21.7458 24.2648 21.7458 20.2427C21.7458 16.2206 25.0165 12.9499 29.0386 12.9499C33.0607 12.9499 36.3314 16.2206 36.3314 20.2427C36.3314 24.309 33.0607 27.5355 29.0386 27.5355Z" fill="#ED6C00"/>
<path d="M112.575 31.9996C106.122 31.9996 100.862 26.74 100.862 20.2869C100.862 13.8339 106.122 8.57422 112.575 8.57422C119.028 8.57422 124.287 13.8339 124.287 20.2869C124.287 26.74 119.072 31.9996 112.575 31.9996ZM112.575 12.9941C108.553 12.9941 105.282 16.2648 105.282 20.2869C105.282 24.309 108.553 27.5797 112.575 27.5797C116.597 27.5797 119.867 24.309 119.867 20.2869C119.867 16.2648 116.597 12.9941 112.575 12.9941Z" fill="#727171"/>
<path d="M94.4089 3.93348C94.4089 2.34231 93.1272 1.06055 91.536 1.06055C89.9449 1.06055 88.6631 2.34231 88.6631 3.93348C88.6631 5.52464 89.9449 6.8064 91.536 6.8064C93.1272 6.8064 94.4089 5.52464 94.4089 3.93348Z" fill="#ED6C00"/>
<path d="M179.403 20.2434C179.403 19.3153 179.315 18.6081 179.271 18.3871V18.2987C178.342 12.6854 173.525 8.61914 167.823 8.61914C161.414 8.61914 156.199 13.8346 156.199 20.2434C156.199 26.6523 161.414 31.8678 167.823 31.8678C172.331 31.8678 176.486 29.2158 178.387 25.1053H173.26C171.845 26.6965 169.856 27.5805 167.735 27.5805C164.508 27.5805 161.68 25.5031 160.707 22.4092L160.663 22.2766H179.182C179.226 22.0998 179.271 21.702 179.315 21.1716V21.0832C179.315 20.9064 179.359 20.6854 179.359 20.4644C179.359 20.4202 179.359 20.3318 179.359 20.2876L179.403 20.2434ZM160.619 18.4313L160.663 18.3429C161.547 15.1606 164.464 12.9506 167.735 12.9506C171.005 12.9506 173.923 15.1606 174.807 18.3429L174.851 18.4313H160.619Z" fill="#727171"/>
</g>
<defs>
<clipPath id="clip0">
<rect width="179.403" height="32" fill="white"/>
</clipPath>
</defs>
</svg>
