<svg width="120" height="14" viewBox="0 0 120 14" fill="none" xmlns="http://www.w3.org/2000/svg">
<g clip-path="url(#clip0)">
<path d="M46.4566 0.383972C46.4566 0.383972 46.3587 0.429576 46.2391 0.419175C46.1199 0.408375 45.8049 0.502383 45.6963 0.640794C45.6963 0.640794 45.3474 1.13244 45.3899 1.18524C45.4601 1.27285 45.5947 1.55487 45.5621 1.66088C45.5294 1.76689 45.4829 1.8149 45.396 1.8361C45.3899 1.9177 45.4217 1.98011 45.5686 2.05532C45.7584 2.15252 45.8024 2.30574 45.6837 2.49335C45.4539 2.85658 44.7732 3.45624 44.7512 3.52024C44.7292 3.58425 44.5039 3.84627 44.4064 3.92068C44.3088 3.99508 43.5294 4.31071 43.4102 4.42792C43.2911 4.54473 42.8879 5.14998 42.8442 5.27759C42.801 5.4052 42.7251 5.51161 42.8332 5.64962C42.9414 5.78764 43.2021 6.01085 43.2127 6.19167C43.2238 6.37249 43.3862 6.99974 43.7877 7.05254C43.9832 7.07374 44.0685 7.05854 44.135 6.93573C44.2787 6.66891 44.6676 6.12086 44.7704 5.99885C44.8259 5.93285 44.9377 5.85124 45.0679 5.88324C45.1981 5.91485 45.8114 6.07406 45.8114 6.07406C45.8114 6.07406 45.3348 6.81052 45.2046 6.93773C45.0744 7.06534 44.0048 7.7542 43.8963 7.83901C43.7877 7.92422 43.5816 8.00943 43.5706 8.20064C43.56 8.39226 43.5164 9.14672 43.5274 9.33834C43.538 9.52996 43.6249 9.66797 43.7441 9.72117C43.8632 9.77438 43.9514 9.82958 44.0163 9.72357C44.0811 9.61756 44.3186 9.50875 44.4056 9.44475C44.4921 9.38154 44.874 8.9127 44.9932 8.8595C45.1124 8.80629 45.7979 8.43066 46.015 8.37746C46.2317 8.32425 46.4227 8.16904 46.7153 8.08383C47.0079 7.99862 47.225 7.86661 47.3552 7.78621C47.5025 7.6954 47.7645 7.46338 47.9306 7.45178C48.0281 7.44378 48.6076 7.47618 48.8737 7.45658C49.0687 7.44258 49.2858 7.36137 49.3724 7.20176C49.4593 7.04214 49.5217 6.61851 49.476 6.5437C49.3899 6.40249 49.2867 6.05166 49.2781 5.99885C49.265 5.92365 49.2099 5.84084 49.0687 5.78764C48.9279 5.73483 48.6374 5.48881 48.6268 5.43561C48.5835 5.44641 48.4738 5.49201 48.2444 5.69203C48.0016 5.90405 47.8282 5.94245 47.8155 6.03646C47.7967 6.17327 47.8163 6.60971 47.7898 6.67171C47.7388 6.78772 47.5923 7.00054 47.4389 7.08815C47.3548 7.13575 46.1403 7.7438 46.0102 7.7542C45.88 7.765 45.5229 7.84581 45.3952 7.6706C45.4605 7.51138 45.5551 7.45178 45.638 7.33857C45.7192 7.22856 46.3464 6.86173 46.455 6.79772C46.5635 6.73412 47.6307 5.43841 47.8478 5.29999C48.0644 5.16158 48.5778 4.72194 48.697 4.61553C48.8161 4.50913 49.1822 4.05229 49.3291 3.92708C49.5352 3.73546 50.2832 3.55504 50.446 3.23582C50.446 3.23582 50.6354 2.90459 50.3318 2.75578C50.0281 2.60696 50.0232 2.62976 49.958 2.58736C49.8927 2.54496 49.7086 2.39574 49.589 2.37454C49.4699 2.35334 49.2638 2.39574 49.0793 2.41695C48.8949 2.43815 48.7215 2.43815 48.5913 2.55536C48.4611 2.67257 48.4493 2.89059 48.3521 3.0502C48.3521 3.0502 47.7653 3.83547 47.5923 4.02668C47.4189 4.2183 47.0406 4.59673 46.8781 4.64954C46.7153 4.70274 46.661 4.68154 46.5745 4.73475C46.4876 4.78795 46.2477 5.00037 46.0852 5.05317C45.9228 5.10598 45.2095 5.04797 45.132 5.03237C45.0189 5.00917 44.9585 4.85155 45.0993 4.70274C45.2401 4.55393 45.5009 4.34951 45.6633 4.2643C45.8261 4.1795 46.9581 3.13061 47.0557 3.0562C47.1532 2.98179 47.3283 2.76258 47.4262 2.73097C47.5237 2.69897 47.822 2.63697 47.9755 2.36774C48.1387 2.08092 47.9738 1.9193 48.071 1.68568C48.1685 1.45166 48.2444 1.25845 48.1579 1.04563C48.071 0.832811 47.8539 0.524785 47.3336 0.545986C46.8129 0.567188 46.6394 0.556387 46.6394 0.556387C46.6394 0.556387 46.6084 0.373572 46.4566 0.383972Z" fill="black"/>
<path d="M45.6903 9.38039C45.6116 9.35479 45.4414 9.43039 45.3585 9.5124C45.2753 9.59361 45.1602 9.81803 45.25 9.96324C45.3394 10.1069 46.0225 10.8453 46.4122 11.1649C46.4681 11.2101 46.5395 11.415 46.6354 11.515C46.7313 11.6158 46.8142 11.7034 46.8525 11.7282C46.8909 11.753 46.9868 11.7158 47.0635 11.753C47.1402 11.7906 47.1594 11.8094 47.1721 11.8466C47.1847 11.8842 47.1978 11.9342 47.268 11.8966C47.3382 11.859 47.4985 11.677 47.6063 11.6902C47.6573 11.6966 47.7532 11.7026 47.8809 11.8526C47.8809 11.8526 47.9768 11.9962 48.0915 12.0534C48.2066 12.1098 48.5322 12.2658 48.6277 12.3346C48.7236 12.4034 49.0811 12.6979 49.439 12.7731C49.7969 12.8483 50.0903 12.8231 50.1796 12.8483C50.269 12.8731 50.3457 12.9359 50.4094 12.9547C50.4735 12.9735 50.6391 12.9423 50.684 12.9547C50.7285 12.9679 50.882 13.0483 50.9905 13.0619C51.0991 13.0743 51.0799 13.0743 51.2333 13.0055C51.3864 12.9359 51.508 12.7799 51.5655 12.7671C51.623 12.7547 51.6741 12.7671 51.7316 12.7359C51.7891 12.7047 51.8401 12.6295 51.9038 12.5795C51.9675 12.5295 52.2996 12.4162 52.7212 11.653C52.8489 11.5522 53.0211 11.4958 53.0787 11.4898C53.1362 11.4834 53.4876 11.4774 53.6471 11.5086C53.8067 11.5398 54.0238 11.6342 54.0813 11.9342C54.1389 12.235 54.1646 12.1974 54.1899 12.2162C54.2152 12.235 54.4135 12.3286 54.4964 12.2162C54.5796 12.1038 54.6416 11.667 54.7963 11.5334C54.9497 11.4022 55.1815 11.2826 55.5051 11.321C56.0863 11.3898 57.1338 11.5218 57.8361 12.4727C57.8361 12.4727 57.8745 12.5299 57.9512 12.5483C58.0279 12.5667 58.2128 12.6383 58.3536 12.6295C58.6474 12.6099 59.0175 12.3162 59.184 12.3222C59.184 12.3222 59.3885 12.347 59.497 12.4034C59.6056 12.4599 59.6182 12.4599 59.6696 12.3282C59.7207 12.197 59.7141 11.9846 59.7015 11.9086C59.6888 11.8334 59.657 11.6522 59.3183 11.3642C58.98 11.0765 57.9708 10.5069 57.7794 10.4001C57.7794 10.4001 57.4664 10.3249 57.3513 10.2313C57.2366 10.1377 56.9873 9.81162 56.7192 9.78042C56.7192 9.78042 56.4956 9.76162 56.1956 9.98124C55.921 10.0812 55.8124 10.1249 55.7549 10.1689C55.6974 10.2129 55.6206 10.3313 55.557 10.3313C55.4929 10.3313 55.4794 10.3421 55.455 10.3125C55.3974 10.2437 55.4419 10.0312 55.3272 9.88043C55.2844 9.82483 55.1599 9.74922 55.1485 9.63681C55.1293 9.4556 55.2342 9.25558 55.3464 9.11117C55.3464 9.11117 55.4868 8.82274 55.7104 8.82914C55.934 8.83554 56.0871 8.89155 56.2213 8.88555C56.3552 8.87915 56.5405 8.85434 56.6111 8.86674C56.6812 8.87914 56.7641 8.94795 56.9049 8.88555C57.0457 8.82314 57.02 8.74193 57.0836 8.70433C57.1477 8.66673 57.1987 8.65433 57.1856 8.57312C57.1726 8.49191 57.1412 8.3975 57.1412 8.3659C57.1412 8.3343 57.1154 8.25949 57.02 8.22829C56.9241 8.19709 56.6751 8.17188 56.6176 8.11588C56.56 8.05947 56.2409 7.66504 55.9344 7.61504C55.7447 7.58383 55.0665 7.66504 54.9322 7.60264C54.9183 7.48623 54.8869 6.95138 54.8742 6.83857C54.8616 6.72576 54.8551 6.37533 54.8616 6.27532C54.9444 6.23132 55.315 6.21252 55.577 6.23132C55.839 6.25012 56.5923 6.43774 56.8861 6.44414C56.8861 6.44414 57.1481 6.46894 57.2628 6.35653C57.3778 6.24372 57.4097 6.11251 57.5505 6.09971C57.6525 6.09051 57.6398 6.13731 57.761 6.10611C57.8822 6.0749 57.8822 6.0125 57.9973 6.0061C58.1124 5.9997 58.336 6.11891 58.4446 6.10011C58.5531 6.08131 58.5274 6.0001 58.6678 5.74328C58.8086 5.48645 58.8596 5.48045 58.8274 5.38645C58.7955 5.29284 58.687 5.17363 58.5976 5.08602C58.5082 4.99841 57.7161 4.25995 57.6202 4.13434C57.5248 4.00913 57.3648 3.7339 57.3011 3.7151C57.2375 3.6963 57.0204 3.80271 56.9053 3.75911C56.7902 3.7151 56.5286 3.55869 56.4454 3.53389C56.3625 3.50909 56.3434 3.49628 56.3368 3.54029C56.3303 3.58389 56.3703 3.6767 56.3368 3.7031C56.2732 3.75311 56.2409 3.75311 56.1581 3.74071C56.0985 3.7315 56.1964 3.99753 56.1389 4.07233C56.0814 4.14754 56.0752 4.23515 56.0238 4.25395C56.043 4.31675 56.1642 4.53557 56.1324 4.64238C56.1005 4.74879 55.9981 5.04282 55.7941 5.18683C55.5896 5.33084 55.417 5.55606 54.8934 5.41205C54.9253 5.10522 54.9444 4.93641 55.0212 4.8484C55.0979 4.76039 55.2958 4.10954 55.3211 3.97193C55.3468 3.83431 55.5064 3.06425 55.6088 2.91383C55.7108 2.76342 55.9602 2.38179 56.4327 2.4882C56.9053 2.59461 56.8237 2.60981 56.931 2.62581C57.0971 2.65101 57.4868 2.63221 57.5949 2.66981C57.7039 2.70742 57.7929 2.75742 57.8312 2.75742C57.8696 2.75742 57.9271 2.78222 57.9655 2.69462C58.0038 2.60701 58.0675 2.41299 58.0675 2.34419C58.0675 2.27538 58.1059 2.26898 58.023 2.22538C57.9398 2.18177 57.8378 2.10016 57.8059 2.03776C57.7741 1.97535 57.71 1.89375 57.5949 1.82494C57.4799 1.75614 57.2946 1.65613 57.3011 1.46211C57.3203 1.3805 57.3395 1.3369 57.2628 1.3181C57.186 1.2993 56.8669 1.19289 56.7331 1.12408C56.5988 1.05528 56.2732 0.836457 56.1389 0.786052C56.0046 0.735648 55.7047 0.723247 55.5639 0.679643C55.4664 0.649241 55.366 0.742449 55.2701 0.829656C55.1681 0.911263 55.1171 0.854858 54.9893 0.973668C54.8616 1.09248 54.7277 1.3921 54.5808 1.51812C54.3254 1.73693 53.4121 2.09416 52.4861 2.01896C51.9242 1.94375 51.8601 1.97535 51.8283 1.95015C51.7961 1.92535 51.6683 1.89375 51.6365 1.85014C51.6043 1.80614 51.5598 1.78734 51.5471 1.84374C51.5341 1.90015 51.5341 2.00656 51.4769 2.05656C51.4198 2.10657 51.3362 2.11297 51.3619 2.14417C51.3872 2.17537 51.5663 2.501 51.6618 2.5446C51.7577 2.58861 51.8034 2.60901 51.9748 2.63221C52.1601 2.65701 52.4135 2.60781 52.4923 2.61341C52.5816 2.61981 52.7796 2.70102 52.7861 2.85743C52.7922 3.00624 52.7285 3.15786 52.569 3.27707C52.467 3.38988 52.5245 3.56509 52.5245 3.56509C52.5245 3.56509 52.6139 3.56509 52.6457 3.6467C52.6775 3.7279 52.7416 3.80311 52.8053 3.80951C52.8693 3.81591 53.0562 3.95112 53.0946 4.05793C53.1309 4.15794 53.0775 4.21635 52.9754 4.30835C52.9754 4.30835 52.7922 4.37956 52.7542 4.41676C52.7159 4.45437 52.6522 4.52957 52.5563 4.56678C52.4604 4.60398 52.1287 4.75479 51.9817 4.8548C51.8348 4.95481 51.6177 5.24323 51.3623 5.21163C51.1068 5.18043 50.7363 4.91761 50.5192 4.64838C50.449 4.56078 50.4298 4.53557 50.3914 4.60438C50.3531 4.67319 50.3278 4.74199 50.2829 4.74839C50.238 4.75479 50.238 4.77359 50.2254 4.836C50.2127 4.8984 50.2637 5.50606 50.2829 5.64367C50.3017 5.78128 50.4 6.0517 50.5384 6.29452C50.7236 6.61975 51.4068 7.54663 51.6239 7.67784C51.841 7.80905 51.841 7.84666 51.8985 7.67784C51.956 7.50903 52.0389 7.28941 52.0581 7.1958C52.0772 7.10179 52.0772 6.97618 52.007 6.89498C51.9369 6.81377 51.8536 6.66976 51.8728 6.58215C51.892 6.49454 52.0581 6.33813 52.0964 6.30693C52.1348 6.27572 52.1666 6.27572 52.1348 6.20052C52.1029 6.12531 52.0515 6.11931 52.0838 6.0629C52.1156 6.0065 52.1923 5.9753 52.2241 5.90649C52.256 5.83769 52.5559 5.16123 52.6326 5.00481C52.7094 4.8484 52.7412 4.72959 52.8689 4.63558C52.9962 4.54197 53.2007 4.44797 53.2264 4.44797C53.2521 4.44797 53.3778 4.48917 53.399 4.66078C53.399 4.66078 53.5268 5.90649 53.5333 6.0193C53.5206 6.25092 53.5839 6.93338 53.5843 7.171C53.5851 7.53143 53.4382 7.89146 53.4137 8.01107C53.4137 8.01107 52.6126 8.4079 52.2494 8.44151C51.8471 8.47911 51.3745 8.3603 51.279 8.3415C51.1831 8.3227 51.1831 8.3539 51.2023 8.3915C51.2215 8.42911 51.279 8.54232 51.2341 8.61112C51.1897 8.67993 50.9913 8.72993 51.0044 8.78634C51.0268 8.88395 51.1737 9.14637 51.4835 9.21837C51.943 9.32478 52.3074 9.14957 52.4735 9.16197C52.4735 9.16197 52.7159 9.24318 52.8183 9.24958C52.9207 9.25598 53.1268 9.17517 53.2301 9.16437C53.3407 9.15197 53.2844 9.33078 53.3101 9.43079C53.3354 9.5316 53.3545 9.67521 53.3166 9.88163C53.2876 10.0388 53.1938 10.4129 53.022 10.5089C52.902 10.5761 52.467 10.8645 52.269 10.9017C52.0976 10.9345 51.5345 10.7329 50.7812 10.8081C50.2915 10.8565 50.0858 10.9509 49.9189 10.9705C49.4524 11.0269 48.7501 10.9769 48.5714 10.9829C48.3926 10.9893 47.7156 10.9641 47.6389 10.9581C47.5112 10.9705 47.3961 11.0653 47.2876 11.0525C47.0766 10.7517 46.5469 9.99404 46.3359 9.75642C46.2551 9.66481 46.0229 9.40559 45.8952 9.39319C45.767 9.38039 45.767 9.40519 45.6903 9.38039Z" fill="black"/>
<path d="M48.1489 8.40951C48.0261 8.48672 47.8102 8.35951 47.7082 8.2783C47.6229 8.2103 47.587 8.2471 47.6441 8.33471C47.6441 8.33471 47.7674 8.52472 47.8612 8.60433C47.9571 8.68554 48.0849 8.77955 48.1934 8.92396C48.302 9.06757 48.4423 9.4616 48.5064 9.54361C48.5701 9.62482 48.8639 9.91244 48.9022 9.96245C48.9406 10.0125 49.0426 10.0381 49.1259 10.0125C49.2087 9.98765 49.4548 9.85844 49.6046 9.82484C49.7449 9.79363 49.911 9.83124 49.962 9.81243C50.0131 9.79363 50.0322 9.70603 50.0706 9.66882C50.109 9.63122 50.1408 9.63122 50.0898 9.50561C50.0388 9.3808 50.0131 9.28079 49.9176 9.23678C49.8217 9.19318 49.6046 9.04237 49.5601 8.96716C49.5152 8.89196 49.3173 8.81715 49.241 8.78595C49.1642 8.75474 48.8765 8.61713 48.7684 8.52352C48.6868 8.45232 48.628 8.2415 48.4876 8.17909C48.3697 8.12669 48.273 8.07909 48.264 8.16029C48.2514 8.2783 48.2383 8.35311 48.1489 8.40951Z" fill="black"/>
<path d="M72.3232 2.38286L72.3222 2.38092V2.38286H72.3232Z" fill="black"/>
<path d="M64.9256 1.06025C64.9591 0.985045 65.4406 1.07705 65.5512 1.11866C65.6618 1.16026 66.0454 1.25227 66.258 1.34388C66.6494 1.47749 67.1326 2.19075 67.3843 2.30596C67.6712 2.43757 67.9185 2.44597 68.0291 2.54598C68.1397 2.64639 68.2079 2.68159 68.1887 2.8196C68.1695 2.95761 68.1952 3.06362 68.0614 3.10123C67.9275 3.13883 67.7292 3.13243 67.6651 3.16403C67.6014 3.19523 67.4545 3.28924 67.3456 3.27044C67.237 3.25164 67.046 3.15763 66.931 3.14523C66.8155 3.13243 66.1899 3.01362 65.9667 2.92601C65.8712 2.88881 65.6916 2.98882 65.6471 2.95081C65.6027 2.91321 65.6027 2.788 65.6153 2.67559C65.6153 2.67559 65.6855 2.53758 65.5708 2.41277C65.4561 2.28756 65.2386 2.11834 65.1876 2.02473C65.1362 1.93073 64.8914 1.13546 64.9256 1.06025Z" fill="black"/>
<path d="M63.4757 4.56592C63.4757 4.56592 63.3353 4.68473 63.2909 4.70993C63.2456 4.73473 63.2439 4.81874 63.2782 4.85994C63.3549 4.95395 63.2264 5.25438 63.3292 5.41719C63.3292 5.41719 63.5843 5.79922 64.0185 5.99964C64.3494 6.15245 64.7653 6.07485 64.9318 6.20006C65.0975 6.32527 65.0338 6.46288 65.0591 6.47528C65.0844 6.48768 65.7614 6.24366 65.9789 6.26886C66.3686 6.31367 66.4515 6.55249 66.6237 6.55729C66.6237 6.55729 66.924 6.58209 67.2876 6.21886C66.9751 5.84323 66.5727 5.5492 66.1895 5.36759C65.8063 5.18597 65.6912 5.27998 65.6084 5.23638C65.5255 5.19237 65.2121 5.01716 65.053 4.99836C64.8938 4.97955 63.8654 4.89835 63.7442 4.80434C63.6226 4.70993 63.4757 4.56592 63.4757 4.56592Z" fill="black"/>
<path d="M41.9163 11.2833C42.0248 11.3833 42.1195 11.6097 42.1485 11.8833C42.2166 12.0842 42.4794 12.5718 42.7528 12.9106C42.7528 12.9106 43.3172 13.5575 43.6086 13.7559C43.74 13.8451 43.9746 13.9823 44.1432 13.9995C44.1819 13.8627 44.4068 13.6003 44.4252 13.5775C44.5341 13.4447 44.577 13.3275 44.5733 13.1734C44.5725 13.1326 44.5908 12.8326 44.5859 12.6978C44.5811 12.5618 44.4962 12.465 44.4721 12.4266C44.3558 12.2438 44.3117 12.0782 44.5333 11.8977C44.5476 11.8721 44.5105 11.6893 44.5011 11.6337C44.4786 11.4921 44.4529 11.3329 44.3774 11.2401C44.3525 11.2097 44.2668 11.1457 44.2481 10.9509C44.2289 10.7572 44.3611 10.4936 44.3656 10.4772C44.3672 10.4692 44.3423 10.4364 44.3313 10.4312C44.0183 10.6568 43.6282 11.1233 43.6282 11.1233C43.4796 11.3133 43.3662 11.4641 43.1879 11.4641C43.1071 11.4641 42.8304 11.3393 42.6577 11.1861C42.5272 11.0705 42.2488 10.9133 42.2084 10.9393C42.1395 10.9837 42.1529 11.0321 42.0954 11.1009C42.0375 11.1705 41.9285 11.2333 41.9163 11.2833Z" fill="black"/>
<path d="M80.4607 6.96152C80.4273 6.91151 79.4287 6.22706 79.1928 6.16025C78.9561 6.09344 78.6602 6.14545 78.4897 6.08704C78.3191 6.02864 78.1469 5.89103 77.9853 5.87423C77.8237 5.85742 77.5062 5.85982 77.3356 5.77622C77.1658 5.69301 77.0169 5.5738 76.9059 5.5738C76.7949 5.5738 76.5439 5.5426 76.4676 5.48379C76.3909 5.42539 76.3799 5.38578 76.4652 5.28577C76.5505 5.18577 76.7084 4.96855 76.8357 4.93534C76.963 4.90214 77.6935 4.61612 77.8984 4.50771C78.1024 4.3993 78.1791 4.3825 78.1963 4.30729C78.213 4.23208 78.2289 4.15768 78.1252 4.08407C77.9404 3.95246 77.8127 3.88165 77.6931 3.86485C77.5743 3.84805 77.4405 3.86485 77.3695 3.99006C77.2634 4.17768 76.8904 4.3697 76.7973 4.47811C76.7035 4.58651 76.5525 4.86614 76.3391 5.01655C76.1269 5.16696 76.0497 5.28778 75.7694 5.27977C75.4882 5.27137 75.1413 5.16096 75.0471 5.11056C74.9536 5.06056 74.8177 4.96055 74.8177 4.96055C74.8177 4.96055 74.945 4.75813 75.0471 4.69132C75.1491 4.62452 75.3172 4.49931 75.5135 4.49931C75.7098 4.49931 75.711 4.56011 75.7628 4.50971C75.884 4.3909 76.297 3.90686 76.4166 3.84005C76.5354 3.77325 76.6206 3.69804 76.7737 3.67284C76.9275 3.64803 77.0381 3.63123 77.1148 3.53962C77.1148 3.53962 77.1548 3.44562 77.0528 3.37681C76.9508 3.30801 76.8488 3.22 76.7851 3.1952C76.7214 3.17039 76.4782 3.1952 76.3888 3.14519C76.2995 3.09519 76.2293 3.01358 76.1783 3.01358C76.1497 3.01358 75.1479 4.4409 74.7414 4.76013C74.7414 4.76013 74.6778 4.82894 74.6133 4.81013C74.5496 4.79133 74.4158 4.72853 74.3774 4.70372C74.339 4.67892 74.339 4.59732 74.3648 4.55971C74.3901 4.52211 74.537 4.33449 74.5949 4.27169C74.6243 4.23849 74.6133 4.16528 74.5366 4.12127C74.4598 4.07767 74.3986 4.07967 74.3476 4.04847C74.2966 4.01687 74.064 3.90846 73.9812 3.87725C73.8983 3.84605 73.8538 3.77725 73.86 3.72724C73.8665 3.67724 74.0448 3.53922 74.1285 3.51442C74.2113 3.48962 74.6002 3.38281 74.7096 3.37041C74.8181 3.35801 75.0409 3.37041 75.1821 3.2268C75.3225 3.08279 75.3417 3.01998 75.3609 2.96358C75.3801 2.90717 75.3992 2.83196 75.3033 2.78196C75.2079 2.73196 75.1303 2.65035 75.1185 2.60034C75.0924 2.54394 75.003 2.49394 75.0348 2.41873C75.0667 2.34352 75.2715 2.1371 75.4311 2.16191C75.5915 2.18671 76.0824 2.24351 76.1722 2.27472C76.2615 2.30592 76.3888 2.29352 76.4529 2.18071C76.5358 2.0931 76.6186 2.0619 76.7851 2.1371C76.9508 2.21231 77.0083 2.28112 77.0846 2.29992C77.1614 2.31872 77.6466 2.57554 77.7939 2.70675C77.9404 2.83836 78.0555 3.00078 78.2983 2.89477C78.5407 2.79476 78.5852 2.79476 78.6619 2.77596C78.739 2.75716 78.7704 2.69435 78.7321 2.60074C78.6937 2.50714 78.5917 2.16271 78.2664 1.97469C77.9404 1.78707 77.4805 1.76187 77.283 1.60546C77.0846 1.44905 76.7529 1.12982 76.5864 1.04821C76.4207 0.966604 76.1199 0.904199 76.0179 0.841794C75.9159 0.778988 75.7947 0.691781 75.6865 0.697781C75.5772 0.704182 75.4564 0.672979 75.3923 0.754186C75.3282 0.835393 75.2585 0.979406 75.2201 1.02341C75.1817 1.06741 75.1434 1.10502 75.1691 1.19222C75.1944 1.27983 75.2266 1.38024 75.1491 1.48025C75.0724 1.58026 74.9516 1.71187 74.8814 1.75587C74.8112 1.79948 74.5476 1.77947 74.3639 1.54905C74.0444 1.14862 73.8787 0.79779 73.802 0.703782C73.7253 0.610174 73.5914 0.497364 73.4633 0.478563C73.336 0.44736 73.2719 0.390955 73.2527 0.32815C73.2335 0.265744 73.0932 0.228141 73.0034 0.178137C72.914 0.128133 72.4733 -0.053483 71.9624 0.0217234C71.5877 0.0769282 71.2792 0.484963 70.9732 0.434959C70.872 0.418557 70.8193 0.460161 70.8511 0.541368C70.883 0.622975 70.832 0.766587 70.8511 0.873396C70.8703 0.980206 70.9976 1.11142 71.0176 1.18022C71.0368 1.24903 71.0687 1.32423 71.1964 1.32423C71.3241 1.32423 71.4196 1.30583 71.5608 1.37424C71.7012 1.44305 72.0134 1.65586 71.9244 1.84988C71.8354 2.0439 71.7077 2.0815 71.6183 2.0751C71.5282 2.0687 71.5608 2.0567 71.458 2.0567C71.3559 2.0567 71.0625 2.1255 70.8577 2.0751C70.743 2.02509 70.7557 1.91869 70.7046 1.91229C70.57 1.92909 70.4814 2.1251 70.3402 2.16271C70.2309 2.19191 69.2164 2.33152 69.089 2.34432C68.9617 2.35712 68.6993 2.31312 68.5908 2.25031C68.5524 2.22551 68.4761 2.18151 68.514 2.26912C68.5524 2.35072 68.5716 2.34432 68.6352 2.46313C68.6989 2.58194 68.7499 2.83236 68.7883 2.91397C68.8266 2.99558 68.8903 3.09559 69.0507 3.04558C69.2102 2.99558 69.3314 2.96398 69.4461 2.90797C69.5616 2.85157 69.8868 2.68875 70.0664 2.68275C70.2451 2.67635 70.5516 2.60114 70.5773 2.58274C70.6026 2.69555 70.743 3.44042 70.7304 3.57203C70.7177 3.70364 70.6793 3.72204 70.7112 3.82885C70.743 3.93566 70.7687 4.14808 70.59 4.24209C70.4108 4.33569 70.3088 4.4361 70.1301 4.4485C69.9513 4.4609 69.7277 4.4421 69.6257 4.50491C69.5236 4.56731 69.4726 4.63612 69.3123 4.66772C69.1527 4.69892 68.865 4.73013 68.6993 4.68652C68.5336 4.64292 68.3031 4.57371 68.2521 4.57371C68.201 4.57371 68.1819 4.58611 68.1627 4.68652C68.1435 4.78653 68.1309 4.98695 68.2774 5.04975C68.4239 5.11216 68.6895 5.21337 68.8519 5.31258C69.067 5.44419 69.1523 5.69461 69.0184 5.88823C69.0184 5.88823 68.3218 6.7063 68.2072 6.83791C68.0925 6.96912 68.0113 7.11313 67.8072 7.19674C67.6885 7.24514 67.4926 7.07953 67.1768 7.35515C67.1768 7.35515 66.8531 7.80999 66.783 7.8912C66.7128 7.9724 66.7128 7.99121 66.7764 8.10442C66.8348 8.22923 66.8601 8.37324 66.7572 8.51165C66.6552 8.64926 66.1317 8.84928 65.8766 9.25011C65.7419 9.46093 65.404 9.80736 65.302 10.383C65.2057 10.615 64.7736 11.2259 64.4397 11.0911C63.6987 10.7902 63.9925 10.283 63.897 10.227C63.7199 10.1526 63.3734 10.5026 63.3734 10.8278C63.3734 11.0811 63.5073 11.1035 63.482 11.3035C63.4567 11.5035 63.3583 12.0444 63.4118 12.18C63.4754 12.3424 63.4677 12.4424 63.9076 12.6384C64.4083 12.862 65.0057 13.4573 65.2273 13.5901C65.4489 13.7237 66.1949 14.0237 66.5601 13.8449C66.8025 13.7261 66.6152 13.2965 66.6238 13.1628C66.6324 13.0292 66.6748 12.872 66.6071 12.7056C66.5385 12.5384 66.3259 12.28 66.3602 11.9627C66.3945 11.6455 66.7601 10.7354 66.8964 10.5526C67.0327 10.369 67.211 10.0854 67.0751 9.76736C66.9307 9.38133 66.9221 8.80928 67.1604 8.44244C67.3988 8.07561 67.5008 7.82759 67.6203 7.68518C67.7399 7.54277 68.1305 7.31715 68.3035 7.22194C68.4055 7.16554 68.4357 7.04472 68.572 6.90271C68.8715 6.58989 69.3298 6.12065 69.4257 5.96983C69.4759 5.89063 69.4339 5.75101 69.5445 5.66941C69.715 5.5442 69.853 5.31258 69.9277 5.25217C70.2256 5.01015 70.6177 4.69292 70.7365 4.69292C70.7875 5.02655 70.8001 5.38778 70.7046 5.5566C70.6267 5.69421 70.5834 5.77782 70.5916 5.98663C70.5773 6.25186 70.2088 6.53748 70.0537 6.54588C69.8481 6.55668 69.4233 6.46668 69.4155 6.58349C69.4069 6.7003 69.3894 6.89631 69.0703 7.10913C69.2066 7.14233 69.7979 7.20714 70.0795 7.61637C70.5981 7.29915 70.8479 6.97992 71.0009 6.7127C71.0695 6.63749 71.1968 6.54588 71.3164 6.57909C71.4951 6.62909 71.9252 6.7103 72.0721 6.7647C72.2888 6.84631 72.5378 7.21554 72.155 7.44036C71.7718 7.66598 70.7283 8.01481 70.5243 8.04841C70.3202 8.08121 69.8771 8.11482 69.5449 7.9064C69.2135 7.69798 69.058 7.62678 69.0148 7.60157C68.9723 7.57677 68.9295 7.47676 68.7254 7.55997C68.5214 7.64278 68.4251 7.64758 68.3484 7.67238C68.2716 7.69718 68.1827 7.77239 68.319 7.83079C68.4553 7.8892 68.7956 8.04801 68.9662 8.33164C69.1368 8.61526 69.2388 9.02369 69.2298 9.29092C69.2208 9.55814 69.1192 11.7575 69.0005 12.0168C68.8809 12.2752 68.6936 12.3628 68.5663 12.388C68.439 12.4132 68.3704 12.396 68.3027 12.396C68.2341 12.396 68.2149 12.4444 68.2149 12.5116C68.2149 12.578 68.2341 12.6968 68.2427 12.7388C68.2512 12.7804 68.2835 12.874 68.4198 12.874C68.5553 12.874 69.1707 12.9724 69.2902 13.006C69.409 13.0388 69.5628 13.0476 69.6901 12.8716C69.8175 12.6964 69.9028 12.538 70.0648 12.4632C70.2268 12.3884 70.3206 12.2632 70.3459 12.0124C70.3712 11.7623 70.5414 10.6106 70.5414 10.527C70.5414 10.4434 70.5296 10.3558 70.6267 10.335C70.8393 10.289 71.1527 10.1266 71.4078 10.0514C71.6636 9.97618 73.2752 9.76696 73.4706 9.67575C73.6665 9.58374 74.5353 9.41733 74.7051 9.37492C74.8757 9.33332 75.012 9.16651 75.165 9.26652C75.318 9.36732 75.3266 9.51734 75.2756 9.70855C75.2246 9.90057 75.0883 10.2954 75.2332 10.621C75.3776 10.9459 75.4547 11.0859 75.4625 11.2947C75.4711 11.5031 75.4711 11.8039 75.0536 11.8375C74.6369 11.8703 74.1219 11.8063 73.9424 11.8227C73.7636 11.8399 73.7041 11.8311 73.4062 11.8063C73.1083 11.7815 72.9422 11.6875 72.9679 11.7955C72.9932 11.9039 73.0189 11.9964 73.2062 12.1048C73.3935 12.2132 73.9681 12.582 74.0966 12.6492C74.224 12.7156 75.0716 13.0476 75.2246 13.1893C75.3776 13.3313 75.7739 13.8173 75.9102 13.8761C76.0465 13.9349 76.2681 13.9433 76.4721 13.8261C76.677 13.7097 76.7488 13.6653 76.9194 13.6317C77.0899 13.5989 77.2772 13.5069 77.3193 13.2653C77.3621 13.0232 77.3446 12.8644 77.2258 12.6808C77.1063 12.4972 77.0467 12.4216 77.0642 12.138C77.081 11.8543 77.0467 10.6942 77.0467 10.5354C77.0467 10.3766 76.9622 10.1934 76.9622 9.90977C76.9622 9.62615 77.0299 8.44084 77.1662 8.11522C77.3025 7.79039 77.4797 7.64638 77.5576 7.59157C77.6723 7.51037 77.718 7.36795 77.4429 7.17194C77.1679 6.97592 76.3125 6.46468 75.8465 6.20385C75.6943 6.11865 75.1524 6.06624 75.0671 6.05784C74.9818 6.04944 74.9675 6.09104 74.8565 6.23306C74.7455 6.37507 74.5831 6.41947 74.5304 6.48348C74.4243 6.61309 74.4753 6.83831 74.4243 6.99712C74.3733 7.15593 74.2627 7.25594 74.0922 7.22234C73.9224 7.18914 73.6539 7.01152 73.5861 6.95352C73.5176 6.89511 73.4755 6.7783 73.5776 6.62789C73.6796 6.47788 73.6714 6.49428 73.7392 6.35267C73.8069 6.21065 73.6808 6.04584 73.7326 5.88943C73.8028 5.67901 73.9926 5.35338 74.1032 5.31978C74.2134 5.28617 74.3582 5.23217 74.6116 5.31138C74.8516 5.38658 74.9438 5.52019 75.003 5.6202C75.0626 5.72021 75.1058 5.74541 75.2589 5.69541C75.4119 5.64541 75.5568 5.537 76.0081 5.73701C76.459 5.93703 77.172 6.32226 77.5409 6.57149C77.9241 6.83031 78.1922 7.00832 79.6396 7.45476C79.8637 7.52357 80.2828 7.43116 80.3681 7.39756C80.4187 7.22914 80.4864 7.00352 80.4607 6.96152ZM73.0609 2.76316C73.1572 2.71955 73.2282 2.68715 73.3168 2.78796C73.3935 2.87557 73.3294 3.06318 73.2082 3.1948C73.0862 3.32641 72.7038 3.45162 72.5369 3.53923C72.3713 3.62683 72.2562 3.73324 72.0844 3.76444C71.9114 3.79565 71.873 3.72044 71.822 3.63283C71.771 3.54523 71.8538 3.49522 71.9493 3.45122C71.9493 3.45122 72.3007 3.2824 72.4863 3.17599C72.672 3.06998 72.952 2.81316 73.0609 2.76316ZM71.7844 2.45033C71.7844 2.45033 72.0138 2.36272 72.1166 2.31272C72.2186 2.26272 72.2888 2.25631 72.346 2.26912C72.4031 2.28192 72.5182 2.34432 72.6018 2.38793C72.6847 2.43153 72.6847 2.47553 72.6271 2.56954C72.5696 2.66355 72.3268 2.80756 72.2248 2.86357C72.1227 2.91997 71.835 2.97638 71.835 2.97638C71.7395 2.99518 71.7138 2.95757 71.6947 2.90117C71.6755 2.84477 71.682 2.71315 71.6694 2.62595C71.6567 2.53794 71.7269 2.48153 71.7844 2.45033ZM71.3882 6.08744C71.216 6.08744 71.2352 6.04344 71.2417 5.94343C71.2482 5.84342 71.2862 5.69301 71.3119 5.64301C71.3372 5.593 71.3629 5.5242 71.3502 5.43019C71.3376 5.33618 71.4331 5.07336 71.5233 4.95455C71.6126 4.83574 71.6571 4.86054 71.702 4.84174C71.7469 4.82294 71.7848 4.78533 71.8934 4.71013C72.0019 4.63492 72.1493 4.57371 72.2896 4.56011C72.6667 4.52251 72.7238 4.59172 72.8324 4.68532C72.9409 4.77933 72.9728 5.07976 72.992 5.18617C73.0111 5.29258 72.9854 5.42419 73.0111 5.5806C73.0373 5.73701 72.9156 5.72461 72.8324 5.74941C72.7496 5.77462 72.5512 5.86222 72.4361 5.89343C72.3207 5.92463 71.5612 6.08744 71.3882 6.08744ZM70.603 9.16131C70.4684 9.20411 70.3982 9.17371 70.3537 9.0801C70.3092 8.98569 70.2643 8.81688 70.2582 8.74167C70.2521 8.66646 70.3219 8.61046 70.4112 8.56646C70.6545 8.44685 70.7565 8.44685 70.8711 8.43524C70.9866 8.42204 70.9413 8.39684 71.0634 8.34084C71.1846 8.28443 71.3119 8.22843 71.5041 8.10962C71.6955 7.99001 72.3594 7.76519 72.4484 7.73998C72.5374 7.71478 72.6088 7.73999 72.4994 7.8836C72.3909 8.02801 71.791 8.56646 71.4074 8.81008C71.0246 9.0549 70.8197 9.0925 70.603 9.16131ZM73.7832 7.76519C73.8469 7.74639 73.9044 7.70278 74.0701 7.65878C74.2366 7.61517 74.3195 7.77119 74.3325 8.03441C74.3452 8.29683 74.2178 8.36564 74.1477 8.40964C74.0775 8.45405 74.1477 8.47845 74.013 8.64806C73.8155 8.79808 72.3847 9.29252 72.257 9.31772C72.1293 9.34292 71.7779 9.34892 71.6249 9.41133C71.471 9.47453 71.1074 9.54334 70.9348 9.56214C70.7626 9.58094 70.8528 9.50054 70.9222 9.46853C71.0695 9.39973 71.7334 9.0233 71.9122 8.89808C72.0913 8.77327 72.8385 8.13482 72.9724 8.03481C73.1066 7.934 73.7196 7.78399 73.7832 7.76519Z" fill="black"/>
<path d="M100.744 5.89362C100.615 5.84562 100.037 5.618 99.8574 5.56799C99.6786 5.51799 98.4874 5.40118 97.9757 5.22556C97.7247 5.13955 97.4403 5.08275 96.9461 5.27997C96.3499 5.51759 95.8741 5.44998 95.5362 5.7132C95.1983 5.97603 94.5894 6.38846 94.4045 6.24405C94.2389 6.11044 94.3066 5.98523 94.2258 5.91882C94.1764 5.87842 94.2552 5.66 94.2042 5.58479C94.1532 5.50959 93.8422 5.26797 93.7402 5.10475C93.6373 4.94194 93.6716 4.82313 93.5929 4.76072C93.521 4.70312 93.617 4.5083 93.872 4.4579C94.1279 4.40789 94.2083 4.33109 94.4425 4.40349C94.6984 4.4827 95.2595 4.36589 95.732 4.27868C96.2046 4.19107 96.4731 4.14067 96.6902 4.26588C96.9077 4.39109 96.9845 4.59151 97.1628 4.60431C97.3166 4.4539 97.499 4.27428 97.7296 4.19947C97.959 4.12427 98.0573 4.02826 98.1083 3.95305C98.1593 3.87785 98.9771 3.65263 99.0408 3.51502C99.1045 3.3774 99.0661 3.14338 98.9979 2.97257C98.9045 2.73775 98.6576 2.52613 98.5813 2.31331C98.505 2.10049 98.032 1.0364 97.6362 0.861189C97.2399 0.685974 97.1252 0.702775 96.9469 0.677573C96.7682 0.652771 96.5764 0.660771 96.487 0.785982C96.3976 0.911193 96.2311 1.12401 95.9634 1.13641C95.6949 1.14881 95.6145 1.16121 95.4994 1.26162C95.384 1.36163 95.4015 1.43684 95.5288 1.52445C95.6561 1.61205 95.8741 2.06289 95.8483 2.27571C95.8226 2.48853 95.861 2.70135 95.4141 2.95177C95.4141 2.95177 94.5886 3.42341 94.3286 3.67783C94.1707 3.78224 93.6255 3.86545 93.2942 4.07426C93.0966 4.19867 92.6812 4.31228 92.4763 4.34989C92.2723 4.38749 92.1576 4.21628 92.0164 4.14747C91.8499 4.06586 91.8251 3.99746 91.9528 3.97225C92.0801 3.94745 92.0781 3.84864 92.2278 3.71543C92.3682 3.59062 92.451 3.54022 92.3743 3.3774C92.2976 3.21459 92.2127 3.04338 92.2127 3.00577C92.2127 2.96817 92.1911 2.81776 92.4343 2.83056C92.6767 2.84296 93.0407 2.79015 93.2178 2.91376C93.3966 3.03898 93.6386 3.05138 93.7279 2.97657C93.8181 2.90136 93.6386 2.77615 93.5366 2.71335C93.4345 2.65094 93.0089 2.40892 92.6384 2.32131C92.2678 2.23371 91.8981 2.1961 91.6467 1.97488C91.539 1.88048 91.4419 1.95408 91.2762 1.82887C91.1097 1.70366 90.8873 1.40604 90.5526 1.30323C90.4123 1.26042 89.774 0.737178 89.6242 0.460354C89.5255 0.277139 89.3096 0.109924 89.0672 0.109924C88.824 0.109924 88.782 0.126726 88.7052 0.126726C88.6281 0.126726 88.5514 0.0639204 88.3984 0.276739C88.2453 0.489557 88.0021 0.635569 87.8111 0.660771C87.6189 0.685574 87.479 0.865189 87.2492 0.927994C87.019 0.9904 86.7934 0.944796 87.0358 1.22002C87.279 1.49524 88.0193 2.1757 88.0193 2.1757C88.1347 2.31331 88.3514 2.67654 88.0454 2.86416C87.7385 3.05218 84.3151 3.76584 83.5238 3.71543C83.1659 3.67783 82.9876 3.72823 82.8725 3.62783C82.757 3.71543 82.7823 3.81544 82.9362 3.86545C83.0892 3.91545 83.4087 4.08226 83.4344 4.15747C83.4601 4.23268 83.4597 4.43709 83.9707 4.39949C84.4816 4.36189 85.3741 4.32188 85.6307 4.34949C86.0221 4.39109 86.1417 4.27428 86.269 4.17427C86.3963 4.07386 86.8395 3.99066 86.9415 4.11587C87.0052 4.22828 86.9709 4.40349 86.9709 4.40349C86.9709 4.40349 86.9709 5.43038 87.0101 5.58039C87.0484 5.73041 87.1035 5.86402 86.9505 6.05203C86.7966 6.24005 86.5122 6.33166 86.4738 6.40686C86.4347 6.48207 86.3457 6.64488 86.6012 6.66969C86.8562 6.69449 87.0101 6.74049 87.1121 6.8533C87.2141 6.96611 87.4777 7.15813 87.5798 7.27054C87.6818 7.38295 87.9287 7.54616 87.6867 7.72138C87.4434 7.89659 87.1247 7.92619 86.9582 7.9886C86.7926 8.051 86.3326 8.43544 86.0266 8.49704C85.7197 8.56025 83.9066 8.76027 83.727 8.76027C83.5483 8.76027 83.4463 8.73546 83.3308 8.54785C83.2161 8.35943 83.152 8.13461 83.05 8.17221C82.948 8.20982 82.9721 8.26982 82.9353 8.42224C82.8835 8.63545 82.5775 8.64786 82.5901 8.74786C82.5901 8.74786 83.05 9.32351 83.4589 9.53713C83.867 9.74955 83.9825 9.69955 84.2249 9.66194C84.4681 9.62434 84.8603 9.62754 85.0762 9.64074C85.3537 9.65714 86.1029 9.42832 86.4853 9.43592C86.5563 9.58674 86.5306 10.1064 86.2086 10.3252C85.8254 10.5868 85.1765 11.4081 84.844 11.7089C84.5779 11.9505 84.3967 12.2786 84.1355 12.3534C83.9984 12.3926 83.8286 12.3534 83.8421 12.4658C83.8548 12.579 83.7903 12.6542 83.8931 12.6914C83.9951 12.729 84.2502 12.7414 84.4677 12.6414C84.6844 12.5414 84.7738 12.7038 85.0296 12.6538C85.2847 12.6038 85.4744 12.6078 85.5789 12.3654C85.783 11.8897 85.9278 11.9481 86.1576 11.6349C86.1576 11.6349 86.8048 10.6756 87.0174 9.64874C87.077 9.38152 87.1623 9.2103 87.2516 9.07309C87.341 8.93468 87.8222 8.39743 87.9115 8.34663C88.0009 8.29663 88.3498 8.12181 88.5538 8.0342C88.7587 7.9458 88.8734 7.92099 88.9244 7.9458C88.9754 7.9706 89.1292 8.18422 89.0782 8.33423C89.0264 8.48504 88.9501 8.82267 88.988 9.1859C89.026 9.54913 89.2439 10.2124 89.1545 10.4376C89.0652 10.6632 89.1292 10.7132 88.886 10.8008C88.6436 10.8884 88.4388 10.9305 88.1837 10.8672C87.9278 10.8056 87.7071 10.6796 87.5789 10.6672C87.4516 10.6548 87.4173 10.6384 87.4426 10.8508C87.4679 11.0633 87.5328 11.4517 87.7369 11.5893C87.9409 11.7277 88.1535 11.9277 88.1927 12.0533C88.2311 12.1782 88.2388 12.391 88.3543 12.629C88.469 12.8666 88.6436 13.0422 88.784 13.1298C88.9244 13.2174 89.3459 13.3299 89.499 13.6055C89.7422 13.5931 89.845 13.6399 90.0148 13.3883C90.2229 13.0798 90.662 12.5662 90.6747 12.4154C90.6873 12.2654 90.7383 11.9897 90.611 11.8397C90.4829 11.6897 90.3894 11.4185 90.3208 11.2765C90.2666 11.1625 90.1935 10.8508 90.2531 10.6756C90.3082 10.514 90.4429 9.76915 90.4914 9.67394C90.5592 9.54033 90.5592 9.51153 90.6747 9.57393C90.7893 9.63634 91.5133 10.0412 91.7683 10.5668C91.8838 10.7544 91.9565 10.834 92.0838 10.734C92.2111 10.6332 92.2201 10.5372 92.2201 10.4496C92.2201 10.362 92.2535 10.2792 92.1515 10.216C92.0495 10.1536 91.8879 9.92396 91.8495 9.79875C91.8112 9.67354 91.6965 9.54393 91.5553 9.43152C91.4149 9.31911 90.8444 8.78867 90.7808 8.71346C90.7171 8.63825 90.7383 8.58465 90.7514 8.49624C90.764 8.40864 90.8024 8.0462 90.8281 7.983C90.8534 7.92059 90.8918 7.87059 91.0321 7.89539C91.1733 7.92019 91.3782 7.9862 91.5304 7.92019C91.6843 7.87019 92.2797 7.87859 92.5523 7.85379C92.6543 7.75378 92.6416 7.67017 92.6416 7.67017C92.6416 7.67017 92.3992 7.41935 92.067 7.28174C91.7357 7.14413 90.8795 6.8685 90.7648 6.7933C90.6502 6.71809 90.5673 6.64968 90.5926 6.57448C90.6563 6.38686 90.4804 6.22205 90.5343 6.19244C90.8412 6.02563 91.3096 6.13404 91.3096 6.13404C91.3096 6.13404 91.4459 5.99203 91.3941 5.84201C91.1007 5.72921 90.6498 5.60399 90.5212 5.6416C90.4445 5.34117 90.4829 5.19116 90.5849 5.12835C90.6877 5.06555 91.377 4.62751 91.7096 4.62751C92.0409 4.62751 92.4882 4.77792 92.6804 4.82793C92.8718 4.87793 92.9261 4.88713 93.0632 5.01554C93.2591 5.19916 93.528 5.6832 93.4631 5.83361C93.3852 6.01843 93.4631 6.32806 93.3317 6.56208C93.2521 6.70249 93.1142 6.69369 93.268 6.8561C93.4211 7.01892 93.5867 7.14413 93.5231 7.33174C93.4594 7.52016 93.3443 8.0202 93.3443 8.28342C93.3443 8.54665 93.3317 9.46473 93.2676 9.76475C93.204 10.0656 92.9607 11.1009 92.6971 11.4093C92.4763 11.6673 92.2715 12.0265 92.1176 12.1274C91.9646 12.2274 91.901 12.415 91.9646 12.5026C92.0283 12.5902 92.1438 12.7282 92.2715 12.6158C92.3988 12.5026 92.6804 12.1274 92.8208 12.0025C92.9612 11.8769 93.357 11.8141 93.6504 11.5009C93.9446 11.1885 94.1152 10.8344 94.174 10.55C94.2793 10.0492 94.4164 8.0114 94.4882 7.51856C94.5009 7.43095 94.5837 7.40615 94.6539 7.41215C95.2742 7.60057 95.8263 7.65377 96.2185 7.73258C96.4184 7.77338 96.4544 7.92939 96.4719 8.08421C96.4813 8.52945 96.4344 10.1344 96.4115 10.4752C96.3862 10.8504 96.1683 12.3902 96.2193 12.7786C96.2711 13.167 96.4625 13.5043 96.5262 13.6551C96.5898 13.8051 96.7555 13.7927 96.7939 13.6295C96.8322 13.4671 96.7812 13.3959 96.9685 13.2879C97.131 13.1934 97.4203 13.1166 97.4844 13.1418C97.5484 13.167 97.5864 13.2879 97.65 13.3631C97.7137 13.4383 97.7904 13.4671 97.9443 13.4047C98.0973 13.3423 98.2295 13.3383 98.3405 13.2883C98.4507 13.2382 98.4634 13.0046 98.425 12.829C98.3866 12.6538 98.5356 11.8561 98.3915 11.4937C98.4299 11.2805 98.4168 11.2389 98.3144 11.0517C98.2067 10.8524 98.1487 9.89316 98.1357 9.72435C98.1226 9.55553 98.3005 9.48593 98.3005 9.34871C98.3005 9.2115 98.1683 9.04869 98.181 8.89788C98.1936 8.74786 98.3197 8.36583 98.2915 8.08861C98.2724 7.90099 98.2614 7.14533 98.274 7.07052C98.2867 6.99571 98.3169 6.99331 98.4021 6.96371C98.7527 6.8449 99.3938 6.93691 99.7133 6.8369C100.032 6.73649 100.701 6.50727 100.803 6.44447C100.906 6.38166 100.939 6.34846 100.939 6.21085C100.939 6.07283 100.922 5.96003 100.744 5.89362ZM87.903 3.68383C87.9666 3.66503 88.331 3.48981 88.4457 3.44581C88.5612 3.40221 88.6889 3.48981 88.7718 3.54582C88.8546 3.60182 88.8162 3.70863 88.7591 3.77744C88.7016 3.84624 88.6253 3.88385 88.4649 4.00266C88.3053 4.12147 87.9797 4.13427 87.8646 4.12787C87.7499 4.12147 87.7818 3.97786 87.7752 3.87745C87.7687 3.77744 87.7977 3.71463 87.903 3.68383ZM88.695 6.8137C88.6314 6.8889 88.6057 6.8761 88.5159 6.90131C88.4265 6.92611 88.3563 6.8765 88.3245 6.8077C88.2927 6.73889 88.2735 6.66369 88.2735 6.66369C88.3053 6.59488 88.5351 6.48847 88.644 6.52607C88.7334 6.66369 88.7587 6.73889 88.695 6.8137ZM89.5757 4.96714C89.3525 5.12355 89.0656 5.17996 88.8734 5.27397C88.682 5.36797 88.3625 5.6432 88.2286 5.72481C88.0948 5.80601 87.8707 5.82481 87.7495 5.85602C87.6283 5.88722 87.6601 5.84362 87.6283 5.6996C87.5965 5.55559 87.5838 5.30517 87.6218 5.21116C87.6597 5.11715 87.7667 5.11555 87.8768 5.05475C87.9789 4.99834 88.0499 4.79793 88.1392 4.70432C88.2286 4.61071 88.2988 4.5543 88.42 4.4603C88.542 4.36629 88.9819 3.89065 89.0591 3.82784C89.1358 3.76544 89.1545 3.75904 89.2884 3.75904C89.4222 3.75904 89.5887 3.96545 89.7291 4.08426C89.8695 4.20307 89.9458 4.39109 89.9332 4.60391C89.9209 4.81673 89.7997 4.81033 89.5757 4.96714Z" fill="black"/>
<path d="M112.375 2.16812C112.356 2.03051 112.254 1.75489 112.157 1.64248C112.11 1.58647 112.094 1.60488 111.928 1.59888C111.824 1.59487 111.608 1.44246 111.487 1.27965C111.18 1.25725 111.213 1.26325 110.798 0.979222C110.352 0.673596 110.338 0.615991 110.172 0.540785C110.006 0.465578 110.05 0.534384 109.904 0.547185C109.821 0.553586 109.661 0.49078 109.488 0.440776C109.316 0.390772 109.08 0.503181 108.92 0.597189C108.92 0.741202 108.78 0.928818 108.723 1.00402C108.664 1.07923 108.588 1.21084 108.53 1.31685C108.473 1.42366 108.416 1.44846 108.301 1.50487C107.617 1.73649 106.614 1.8429 106.614 1.8429C106.404 1.8489 106.187 1.64248 105.721 1.61128C105.393 1.58927 104.903 1.75529 104.604 1.64248C104.604 1.64248 104.412 1.60488 104.323 1.44246C104.265 1.34205 104.246 1.33605 104.144 1.27325C104.042 1.21084 104.054 1.36085 104.054 1.51727C104.054 1.67368 104.029 1.69888 103.958 1.8429C103.831 1.8365 103.805 1.9181 103.729 2.05571C103.652 2.19333 103.665 2.24373 103.863 2.38734C104.061 2.53136 104.252 2.94459 104.412 3.20781C104.572 3.47064 104.782 3.97148 104.929 4.06549C105.077 4.15949 105.153 4.1655 105.255 4.11549C105.357 4.06549 105.557 3.96708 105.728 4.30311C105.907 4.65354 105.619 5.3548 105.632 5.57402C105.642 5.74283 105.747 6.78212 105.69 7.21416C105.654 7.48138 105.53 7.87141 105.53 8.01582C105.53 8.15944 105.607 8.42826 105.588 8.8855C105.569 9.34274 105.351 10.0692 105.217 10.2068C105.083 10.3444 104.834 10.482 104.713 10.5952C104.592 10.7077 104.547 10.8641 104.669 11.0265C104.79 11.1897 104.866 11.5021 104.904 11.7593C104.943 12.0166 104.873 12.5726 104.994 12.8922C105.116 13.2119 105.313 13.1495 105.473 13.1431C105.633 13.1367 106.028 13.3995 106.125 13.4367C106.221 13.4743 106.265 13.4119 106.297 13.3491C106.329 13.2863 106.626 13.0131 106.77 12.8482C106.961 12.6294 106.942 12.5046 106.923 12.3162C106.898 12.0598 107.038 11.5521 107.069 11.2021C107.102 10.8513 106.916 10.4816 106.802 10.144C106.687 9.80558 106.77 9.67437 106.757 9.42354C106.747 9.21713 106.63 8.97271 106.63 8.62268C106.63 8.20304 106.859 8.03983 106.891 7.92102C106.924 7.80221 106.942 7.25776 106.968 6.93213C106.993 6.6069 107.141 6.21247 107.18 6.05606C107.218 5.89964 107.447 5.91204 107.549 5.88684C107.652 5.86204 107.703 5.78683 107.977 5.68042C108.252 5.57402 108.846 5.56161 109.031 5.49281C109.217 5.424 109.561 5.25479 109.728 5.05437C109.893 4.85395 109.925 4.80395 110.046 4.76635C110.134 4.73954 110.385 4.78515 110.5 4.76635C110.614 4.74754 110.717 4.42232 110.762 4.32191C110.807 4.2219 110.991 4.03388 111.145 3.58945C111.288 3.17621 111.369 2.31854 111.369 2.31854C111.369 2.31854 111.446 2.34694 111.515 2.30614C111.611 2.24973 111.656 2.22493 111.861 2.24973C112.032 2.27093 112.224 2.25613 112.308 2.24373C112.388 2.23093 112.383 2.22453 112.375 2.16812ZM109.373 3.99628C109.354 4.12789 109.335 4.37831 109.252 4.50352C109.169 4.62874 108.952 4.82915 108.85 4.86035C108.748 4.89156 108.652 5.01037 108.569 5.02917C108.486 5.04797 108.416 5.09197 108.205 5.16718C107.994 5.24239 107.943 5.30479 107.771 5.27359C107.712 5.26319 107.541 5.24239 107.406 5.22359C107.272 5.20478 107.311 5.06077 107.279 4.95436C107.247 4.84795 107.279 4.76035 107.33 4.64754C107.381 4.53473 107.362 4.47232 107.362 4.34071C107.362 4.2091 107.4 3.92107 107.445 3.73306C107.489 3.54544 107.655 3.48704 107.796 3.49544C107.905 3.50184 108.276 3.45703 108.396 3.47064C108.569 3.48904 109.106 3.66465 109.227 3.68345C109.348 3.70226 109.393 3.85907 109.373 3.99628ZM109.437 2.08052C109.418 2.19333 109.444 2.38094 109.31 2.49375C109.176 2.60656 109.06 2.65057 108.876 2.66897C108.691 2.68737 108.556 2.71257 108.396 2.78178C108.237 2.85058 107.63 2.96339 107.567 2.96939C107.502 2.97579 107.464 2.93819 107.445 2.89419C107.426 2.85058 107.381 2.78778 107.336 2.73777C107.292 2.68777 107.19 2.44375 107.196 2.37494C107.202 2.30614 107.183 2.20573 107.273 2.14972C107.362 2.09332 107.457 2.03691 107.457 2.03691C107.534 2.02451 107.579 2.08052 107.688 2.06812C107.796 2.05571 108.103 1.96171 108.473 1.80529C108.843 1.64888 108.996 1.56727 109.182 1.59247C109.367 1.61728 109.513 1.73649 109.507 1.8929C109.503 1.99931 109.482 1.99291 109.437 2.08052Z" fill="black"/>
<path d="M114.917 5.89978C114.847 5.88098 114.542 5.85018 114.399 5.82458C113.876 5.73057 113.263 5.51175 112.924 5.53655C112.586 5.56175 112.151 5.95619 112.055 5.99979C111.96 6.0438 111.078 6.22501 111.078 6.22501C110.606 6.36262 110.35 6.54424 109.782 6.67585C109.214 6.80746 108.671 6.78866 108.555 6.76986C108.441 6.75106 108.326 6.76346 108.179 6.80746C108.032 6.85107 107.981 6.78226 107.911 6.79466C107.911 6.79466 107.898 6.80746 107.86 6.85106C107.821 6.89467 107.86 7.01388 107.891 7.10149C107.923 7.18909 108.038 7.2643 108.217 7.37031C108.396 7.47672 109.034 7.47672 109.168 7.46392C109.303 7.45232 109.36 7.35151 109.449 7.32631C109.538 7.3011 109.871 7.2387 109.922 7.2263C109.973 7.2139 109.986 7.2263 109.999 7.2639C110.012 7.3015 110.075 7.58353 110.107 7.68954C110.139 7.79555 110.024 8.18398 110.005 8.29039C109.986 8.3976 110.023 8.64602 110.018 8.76003C110.011 8.92324 109.859 9.14286 109.807 9.27967C109.731 9.47969 109.405 10.0561 109.265 10.319C109.12 10.6582 108.784 10.9134 108.612 10.9574C108.477 10.9926 108.434 10.9646 108.389 10.9762C108.345 10.9886 108.345 11.0206 108.389 11.1206C108.434 11.2206 108.408 11.283 108.453 11.3519C108.497 11.4207 109.468 12.3099 109.5 12.3411C109.532 12.3723 109.519 12.3723 109.609 12.3035C109.698 12.2347 109.871 12.2411 110.005 12.1911C110.139 12.1411 110.184 11.8839 110.344 11.6967C110.503 11.5095 110.586 11.4211 110.727 11.4023C110.867 11.3835 111.09 11.1522 111.352 11.0586C111.614 10.965 111.806 10.7514 111.946 10.6578C112.086 10.5642 112.521 10.4822 112.572 10.4766C112.623 10.4694 112.623 10.489 112.654 10.5266C112.686 10.5642 112.667 10.6578 112.68 10.8514C112.692 11.045 112.59 11.4771 112.603 11.7407C112.616 12.0043 112.897 12.8424 113.076 13.0808C113.255 13.3184 113.344 13.0744 113.376 12.9924C113.408 12.9112 113.797 12.4479 113.797 12.4479C113.849 12.3603 113.874 12.2167 113.855 12.0979C113.835 11.9783 113.964 11.7659 114.015 11.6595C114.066 11.5523 114.002 11.3775 113.989 11.2898C113.977 11.2022 113.996 11.0834 113.996 11.0834C114.002 10.9326 114.162 10.5138 114.181 10.313C114.2 10.1129 114.098 8.83564 114.13 8.4596C114.145 8.27839 114.2 7.59633 114.213 7.47112C114.225 7.34551 114.27 7.2639 114.283 7.2139C114.296 7.16389 114.251 7.11389 114.257 7.04508C114.264 6.97628 114.372 6.82106 114.475 6.68785C114.615 6.50664 114.839 6.51264 114.89 6.49383C114.941 6.47503 114.954 6.46903 114.961 6.41863C114.967 6.36822 114.992 6.21821 115.012 6.1058C115.032 5.99339 114.987 5.91819 114.917 5.89978ZM112.413 9.5369C112.35 9.6121 111.878 9.91133 111.564 10.0501C111.309 10.1625 110.963 10.3626 110.81 10.419C110.657 10.4762 110.574 10.4762 110.542 10.4502C110.554 10.2566 110.619 10.0877 110.701 9.94933C110.756 9.86012 110.811 9.76171 110.83 9.70571C110.848 9.64971 110.912 9.6245 110.983 9.6245C110.983 9.6245 111.161 9.6245 111.372 9.5997C111.583 9.5749 111.947 9.46769 112.087 9.43729C112.228 9.40528 112.337 9.39888 112.426 9.39888C112.426 9.39888 112.445 9.48609 112.413 9.5369ZM112.509 8.68522C112.4 8.76043 112.1 8.83524 111.928 8.87884C111.806 8.91004 111.391 8.96645 111.167 8.98525C110.944 9.00405 110.951 8.98525 110.906 8.96045C110.887 8.84164 110.899 8.61042 110.912 8.52281C110.925 8.4352 111.053 8.27199 111.065 8.15318C111.065 8.15318 111.525 8.10317 111.608 8.09677C111.691 8.09037 112.49 8.05317 112.49 8.05317C112.49 8.05317 112.496 8.07797 112.509 8.10957C112.521 8.14118 112.515 8.61042 112.509 8.68522ZM112.541 6.71345C112.528 6.77586 112.497 7.10149 112.497 7.32071C112.395 7.3083 112.056 7.2951 111.954 7.3019C111.698 7.32071 111.558 7.50272 111.373 7.55913C111.373 7.55913 111.161 7.65273 111.066 7.61553C111.041 7.45832 111.015 7.14589 110.945 7.03308C110.922 6.99708 110.887 6.94507 110.945 6.90787C111.002 6.87067 111.264 6.75146 111.43 6.71385C111.596 6.67625 111.724 6.64505 111.845 6.61385C111.966 6.58264 112.318 6.45103 112.465 6.53224C112.566 6.59424 112.554 6.65065 112.541 6.71345Z" fill="black"/>
<path d="M119.943 1.824C119.968 1.71759 120.058 1.63638 119.943 1.51717C119.827 1.39836 119.578 1.17314 119.087 0.991529C118.595 0.809913 118.417 0.826714 118.301 0.759909C118.116 0.6535 117.669 0.334272 117.63 0.315471C117.592 0.296669 117.605 0.271467 117.503 0.30907C117.4 0.346673 116.819 0.553091 116.679 0.665901C116.538 0.77871 116.49 0.833515 116.373 0.903921C116.193 1.01033 115.746 1.16074 115.689 1.19795C115.631 1.23555 115.338 1.44837 115.114 1.47997C114.891 1.51117 114.699 1.49877 114.304 1.49877C113.907 1.49877 113.562 1.42357 113.371 1.24835C113.33 1.21155 113.287 1.21675 113.287 1.21675L112.623 1.20435C112.623 1.20435 112.566 1.23555 112.572 1.26075C112.579 1.28595 112.86 1.868 112.886 1.868C112.963 1.8804 113.167 1.97441 113.205 2.07442C113.243 2.17443 113.505 2.80688 113.499 2.9445C113.493 3.08211 113.492 3.12611 113.422 3.21972C113.352 3.31373 113.185 3.47014 113.237 3.65816C113.237 3.65816 113.365 4.1278 113.467 4.27141C113.613 4.31541 113.786 4.34022 113.85 4.50943C113.913 4.67824 114.003 4.97267 114.041 5.03508C114.079 5.09748 114.182 5.18509 114.297 5.19149C114.412 5.19789 114.699 5.15389 114.789 5.15389C114.877 5.15389 116.494 5.14148 116.564 5.19149C116.621 5.23509 116.615 5.22269 116.615 5.2731C116.615 5.3231 116.698 5.91155 116.71 6.13717C116.723 6.36239 116.653 7.7085 116.679 8.25295C116.704 9.01702 116.946 10.2311 117.017 10.782C117.017 10.782 117.068 11.314 116.941 11.5836C116.748 11.546 116.678 11.514 116.576 11.5272C116.474 11.5396 116.257 11.5836 116.129 11.57C116.002 11.5584 115.669 11.4888 115.548 11.4576C115.473 11.4388 115.452 11.4764 115.407 11.4576C115.363 11.4388 115.324 11.4264 115.279 11.414C115.235 11.4016 115.165 11.364 115.209 11.4764C115.254 11.5896 115.516 11.9337 115.573 12.0905C115.631 12.2469 115.644 12.4153 115.79 12.5153C115.937 12.6161 116.434 12.9426 116.576 13.0662C116.819 13.2794 116.972 13.549 117.202 13.6426C117.202 13.6426 117.674 13.8178 117.719 13.8426C117.764 13.8674 117.898 13.8802 118.02 13.8802C118.02 13.8802 118.843 13.9238 118.99 13.9366C119.137 13.9498 119.514 13.9554 119.61 13.9498C119.705 13.9242 119.75 13.9178 119.744 13.849C119.737 13.7802 119.68 13.649 119.705 13.5734C119.731 13.4982 119.823 13.3774 119.807 13.2798C119.776 13.0798 119.495 12.8101 119.495 12.6477C119.495 12.4845 119.514 12.3969 119.5 12.2157C119.489 12.0337 119.322 11.3204 119.309 10.9008C119.272 10.0483 119.119 8.40296 119.105 8.24055C119.056 7.6397 119.201 7.22006 119.188 6.91964C119.175 6.61921 118.913 6.03676 118.888 5.73673C118.862 5.43631 118.875 4.82266 118.881 4.62864C118.888 4.43462 118.913 4.26541 119.003 4.02139C119.092 3.77737 119.188 3.47694 119.207 3.35773C119.226 3.23852 119.194 3.08211 119.277 2.9945C119.36 2.90689 119.725 2.78808 119.807 2.68167C119.89 2.57526 119.916 2.51886 119.954 2.33124C120.002 2.10322 119.917 1.93041 119.943 1.824ZM116.59 4.1278C116.572 4.28621 116.564 4.47183 116.488 4.52823C116.433 4.56823 116.386 4.59704 116.276 4.60984C116.168 4.62224 114.928 4.57664 114.853 4.55343C114.75 4.52223 114.712 4.41582 114.712 4.41582C114.712 4.41582 114.807 4.00259 114.916 3.91498C115.025 3.82737 115.089 3.78337 115.223 3.77097C115.357 3.75857 115.689 3.72696 115.816 3.71456C115.944 3.70216 116.008 3.63936 116.091 3.62695C116.174 3.61415 116.181 3.62055 116.219 3.60815C116.257 3.59575 116.424 3.50814 116.506 3.53295C116.589 3.55775 116.592 3.57695 116.602 3.65816C116.615 3.75857 116.615 3.89618 116.59 4.1278ZM116.634 2.91329C116.578 3.0117 116.564 3.0009 116.52 3.0197C116.475 3.0385 116.028 3.08851 115.766 3.08211C115.581 3.07771 115.477 2.9901 115.35 3.0133C115.248 3.0321 115.069 3.0257 115.019 3.0257C114.968 3.0257 114.917 3.0445 114.91 2.9569C114.904 2.86929 114.866 2.44965 114.866 2.44965C114.853 2.36205 114.885 2.33684 114.968 2.31804C114.968 2.31804 115.364 2.26804 115.542 2.19283C115.721 2.11762 115.9 2.03002 116.009 1.91761C116.117 1.8052 116.424 1.51717 116.59 1.51717C116.711 1.55478 116.75 1.68599 116.75 1.8488C116.749 2.01162 116.781 2.65647 116.634 2.91329Z" fill="black"/>
<path d="M17.246 3.871C17.1374 3.70218 15.854 2.50648 15.7708 2.41247C15.6875 2.31846 15.4068 2.14965 15.2341 2.11805C15.0619 2.08684 14.8256 2.08044 14.6722 1.98683C14.5473 1.91003 13.6569 1.40438 13.5034 1.36078C13.3504 1.31678 13.1904 1.25437 12.9799 1.37318C12.7689 1.49199 12.6155 1.5984 12.5008 1.63C12.3857 1.66121 12.1368 1.74881 12.0474 1.78642C11.958 1.82402 11.4855 2.11805 11.3194 2.14325C11.1533 2.16805 8.93127 2.25126 8.72641 2.25566C7.91555 2.27446 5.75679 2.58769 5.2075 2.61289C4.65904 2.63769 2.82633 2.60009 2.60923 2.53768C1.61922 2.26206 0.668385 1.5752 0.469648 1.41679C0.367627 1.33558 -0.0408651 1.50439 0.00361607 1.66721C0.0570751 1.86242 0.104005 2.13805 0.271727 2.41247C0.405987 2.63169 0.444347 3.9338 0.412108 4.25303C0.385991 4.51465 0.297437 4.77907 0.718579 5.1047C1.14013 5.42993 2.18768 5.80556 2.35336 5.90597C2.51945 6.00598 2.85898 6.86365 2.83858 7.52771C2.80675 8.5794 2.29582 10.6388 2.25746 10.8516C2.2191 11.0648 2.16156 11.1524 2.25094 11.34C2.34031 11.5285 2.86388 12.3041 3.43887 12.5541C3.63026 12.6297 3.69392 12.6425 3.86001 12.5673C4.0261 12.4921 4.31992 12.3289 4.51131 12.3541C4.70311 12.3789 5.09895 12.3541 5.18832 12.3665C5.2781 12.3789 5.44787 12.3377 5.54581 12.1417C5.69272 11.8473 6.00572 11.3664 6.59948 11.0964C7.21936 10.8144 8.27915 10.4768 9.65889 10.6392C11.0386 10.8016 11.319 10.8204 11.5234 10.9456C11.7279 11.0712 11.7789 11.14 11.8425 11.3028C11.9066 11.4652 11.9258 11.6601 12.1429 11.7349C12.36 11.8101 12.4559 11.9037 12.6856 11.9537C12.9154 12.0045 13.4773 11.9785 13.5924 12.0421C13.7075 12.1045 13.9372 12.1357 14.0776 12.0609C14.218 11.9861 14.2307 11.8413 14.4286 11.7413C14.5828 11.6633 14.9717 11.6037 15.0607 11.3904C15.1501 11.178 14.8754 10.6208 15.0223 10.3139C15.4757 9.36867 15.7761 8.03575 16.025 7.16488C16.327 6.10999 16.7265 5.0399 16.7722 4.89268C16.9444 4.33544 17.1036 4.20662 17.1999 4.14142C17.3039 4.07141 17.3137 3.9762 17.246 3.871ZM12.8142 5.65515C12.7567 6.62563 12.38 7.60852 12.1821 7.79613C11.9841 7.98375 11.4732 8.30338 11.2178 8.51019C10.9627 8.71661 11.0137 8.99143 10.7836 9.17345C10.5938 9.32346 10.0874 9.34226 9.66623 9.31706C9.25815 9.29266 7.68662 9.7427 7.514 9.7867C7.34178 9.83031 6.4542 10.1303 6.35177 10.1311C6.04326 10.1335 5.37319 10.2647 5.16384 9.94912C5.06019 9.7935 4.74188 9.36787 4.70393 9.13585C4.67618 8.96463 4.65904 8.31538 4.65904 8.22777C4.65904 8.14016 4.71413 7.96375 4.86798 7.92214C5.00999 7.88374 5.2275 7.80173 5.2275 7.80173C5.75107 7.67052 8.15224 7.95815 8.35669 7.97135C8.56073 7.98295 8.64398 7.88934 8.73335 7.88294C8.82272 7.87654 8.99004 7.92054 9.16143 7.88294C9.4124 7.82893 9.92128 7.63932 10.2086 7.4257C10.4959 7.21328 10.3428 7.05047 10.2212 6.95686C10.1 6.86285 9.92128 6.63123 9.78049 6.50602C9.63971 6.38081 9.64664 6.38721 9.36547 6.32441C9.08471 6.2616 8.84802 6.34921 8.746 6.35561C8.64398 6.36201 8.42035 6.33681 8.42035 6.33681C8.24161 6.33681 7.50706 6.59963 7.11122 6.61843C6.95778 6.62603 6.7921 6.61843 6.65171 6.61843C6.51093 6.61843 6.12161 6.81845 5.87227 6.88125C5.62334 6.94366 5.3487 6.96246 5.08671 6.90606C4.82472 6.84965 4.60762 6.47402 4.57579 6.19239C4.54396 5.91077 4.69699 5.0843 4.82472 4.90908C4.95245 4.73387 5.17608 4.71507 5.75066 4.66506C6.32565 4.61506 7.41769 4.87788 7.41769 4.87788C7.87719 4.99069 8.16489 4.99069 8.63704 4.76547C9.1096 4.54025 10.189 3.65098 10.3102 3.32535C10.4318 3.00012 10.5783 2.84971 10.8085 2.7745C10.8085 2.7745 10.9745 2.7493 11.1088 2.7745C11.2431 2.7993 11.7728 3.02492 12.0988 3.03132C12.2841 3.11893 12.6477 3.36295 12.7628 3.83259C12.8215 4.07101 12.8717 4.68467 12.8142 5.65515Z" fill="black"/>
<path d="M24.8907 7.7338C24.8907 7.7338 22.5275 9.93719 22.0745 10.2192C21.6211 10.5004 19.8329 11.8153 18.8878 12.0278C18.447 12.1474 18.134 11.985 17.9492 12.0278C17.9492 12.0278 17.7321 12.0598 17.6872 12.1786C17.6423 12.2974 17.6872 12.3786 17.6554 12.4918C17.6231 12.6042 17.3934 12.8418 17.4064 12.9354C17.4191 13.0291 17.4958 13.3111 17.5337 13.3863C17.5721 13.4615 17.6488 13.4799 17.7447 13.4747C17.8406 13.4675 18.4536 13.3803 18.5429 13.3675C18.6323 13.3551 18.7282 13.3239 18.8049 13.2175C18.8816 13.1111 19.1143 12.8298 19.3158 12.7542C20.6099 12.2674 22.7495 10.9681 23.2947 10.5196C23.7689 10.128 26.7879 7.10735 27.0176 6.92573C27.2474 6.74411 27.6053 6.42529 27.784 6.35608C27.9627 6.28727 28.2757 6.15566 28.3843 6.23087C28.4928 6.30608 28.5185 6.38088 28.5185 6.5249C28.5185 6.66891 28.5185 6.99094 28.5059 7.10735C28.4806 7.33897 28.4806 7.50218 28.3459 7.63339C28.2851 7.6926 28.1929 7.7086 28.1545 7.85821C28.1276 7.96462 27.8799 8.19024 27.6946 8.27145C27.5094 8.35265 27.0433 8.25904 26.7813 8.44026C26.7813 8.44026 26.5193 8.62228 26.5324 8.76589C26.5455 8.9095 26.692 9.02911 26.7879 9.18552C26.865 9.31113 27.1074 9.61756 27.1584 9.66756C27.2094 9.71757 27.2861 9.78638 27.4649 9.74877C27.6436 9.71117 27.9056 9.63636 27.995 9.67997C28.0843 9.72357 28.097 9.74237 28.1035 9.84238C28.1101 9.94319 28.1227 10.7629 28.0333 11.0317C27.944 11.3013 27.9578 11.3561 27.9884 11.5325C28.0782 12.0506 28.2712 12.8218 28.5059 13.2735C28.5724 13.4015 28.5569 13.4299 28.6846 13.4743C28.8124 13.5171 29.2849 13.5807 29.3486 13.5923C29.4123 13.6055 29.4637 13.5735 29.5657 13.4987C29.6677 13.4235 29.8028 13.3051 29.9297 13.3175C30.115 13.3363 30.6067 13.1927 30.741 13.1799C30.8752 13.1671 31.054 13.0987 31.0985 13.0291C31.1613 12.9322 31.156 12.8354 31.1303 12.7914C31.1046 12.7474 30.9581 12.4842 30.9324 12.3906C30.9071 12.297 30.8177 11.2389 30.8177 10.9257C30.8177 10.6132 30.8369 10.0372 30.9707 9.92479C31.1282 9.79198 31.2319 9.64596 31.4049 9.72397C31.571 9.79918 31.7436 9.80518 31.8457 9.80518C31.8848 9.80518 31.9477 9.79878 32.0056 9.71757C32.0632 9.63636 32.3631 9.18552 32.5035 9.11032C32.6439 9.03511 32.7271 9.03511 32.7398 8.9283C32.7524 8.82189 32.7655 8.81589 32.7145 8.73468C32.7145 8.73468 32.3247 8.35265 32.1076 8.28385C31.8905 8.21504 31.629 8.22144 31.3604 8.12143C31.0919 8.02142 30.8369 7.86421 30.8238 7.7142C30.8136 7.59379 30.8561 6.76892 30.8748 6.6309C30.8936 6.49289 31.1303 6.25567 31.3029 6.20527C31.4278 6.16886 31.5392 6.11766 31.6987 6.14886C31.8583 6.18007 32.2648 6.29648 32.3631 6.43689C32.4431 6.5517 34.5378 7.96182 35.2732 8.49586C35.8008 8.8803 37.8637 10.3204 38.2873 10.5828C38.3917 10.6476 38.5191 10.6564 38.6215 10.6C38.6215 10.6 38.8002 10.4688 38.9855 10.5744C39.1708 10.6817 39.3111 10.7317 39.6241 10.7317C39.9371 10.7317 40.151 10.7397 40.2436 10.5816C40.3905 10.3308 40.3244 9.93799 40.1669 9.81118C39.5303 9.29793 38.0465 8.54067 37.8425 8.43466C37.638 8.32745 36.7761 7.98942 36.5778 7.88301C36.3799 7.7766 35.5943 7.32576 35.4601 7.25736C35.3258 7.18855 34.6684 6.91973 34.317 6.66891C34.102 6.51569 32.81 5.93645 32.6692 5.86124C32.5284 5.78603 32.1007 5.4108 31.9542 5.3604C31.8073 5.31039 31.6987 5.34799 31.558 5.19758C31.4845 5.11917 31.3507 5.08917 31.2837 5.04117C31.2135 4.99116 31.1748 4.94116 31.1878 4.80315C31.2005 4.66554 31.2515 4.52792 31.2515 4.35231C31.2515 4.17709 31.245 4.11429 31.3409 4.10829C31.4368 4.10229 31.6539 4.05188 31.8073 4.03308C31.9607 4.01428 32.1648 4.05188 32.299 4.05188C32.497 4.05188 32.6647 3.92867 32.81 3.95187C33.0079 3.98308 33.0014 4.12109 33.1038 4.1835C33.2058 4.2459 33.7151 4.52352 34.2852 4.47752C34.9112 4.42752 35.1793 4.2835 35.518 3.99548C35.6266 3.98268 35.5947 3.66985 35.4352 3.54464C35.3433 3.47263 34.6206 3.0314 34.1322 2.96219C33.2891 2.84338 32.5676 2.64936 32.4145 2.63656C32.2035 2.61976 31.9481 2.67417 31.744 2.59936C31.7032 2.58416 31.5482 2.49735 31.431 2.44895C31.3339 2.40894 31.2768 2.41054 31.2078 2.36774C31.0874 2.29253 31.1674 2.29853 31.0544 2.22373C30.9177 2.13332 30.8332 2.10092 30.7993 2.06091C30.6973 1.9421 30.6141 1.82289 30.4737 1.52887C30.3296 1.22764 30.3843 0.990421 30.3076 0.846409C30.2309 0.702397 30.1288 0.614789 29.9693 0.571186C29.8093 0.527182 29.4698 0.462776 29.3755 0.439574C29.2221 0.401971 28.8964 0.233157 28.6536 0.239557C28.4341 0.245158 27.9713 0.537183 27.7787 0.652793C27.5489 0.790404 27.351 0.865611 27.351 1.01602C27.351 1.14363 27.3575 1.46646 27.4277 1.63568C27.4979 1.80449 27.5428 2.12412 27.5171 2.24293C27.4914 2.36174 27.3384 2.62496 27.3575 2.81858C27.3575 2.81858 27.4404 3.19421 27.3449 3.27582C27.3449 3.27582 27.0319 3.55104 26.5593 3.63265C26.0868 3.71385 25.6587 3.80146 25.3204 3.76426C24.9817 3.72666 24.6499 3.62665 24.2667 3.65785C23.8835 3.68905 23.2449 3.85187 23.0021 3.82066C22.7593 3.78946 22.4528 3.71425 22.3381 3.68305C22.223 3.65145 22.1145 3.74586 22.1084 3.76466C22.1022 3.78346 22.0761 3.93747 22.0892 4.02748C22.1084 4.15869 22.2553 4.45312 22.4467 4.62833C22.4467 4.62833 22.9768 5.15398 23.4175 5.24799C23.4175 5.24799 23.986 5.3856 24.5479 5.30439C25.1098 5.22318 25.7109 5.04917 25.8121 5.01637C25.9815 4.96196 26.6405 4.96236 26.7169 5.02477C26.7936 5.08757 26.8128 5.13958 26.8189 5.18358C26.8254 5.22718 26.8719 5.25439 26.9425 5.27959C27.0127 5.30439 27.1339 5.33599 27.1213 5.436C27.1086 5.53641 27.0743 5.63442 26.9552 5.75963L24.8907 7.7338Z" fill="black"/>
</g>
<defs>
<clipPath id="clip0">
<rect width="120" height="14" fill="white"/>
</clipPath>
</defs>
</svg>
