<svg width="13" height="16" viewBox="0 0 13 16" fill="none" xmlns="http://www.w3.org/2000/svg">
<path d="M12.5 4H8.5V0L12.5 4ZM8.5 5H12.5V14.5C12.5 15.3438 11.8125 16 11 16H2C1.15625 16 0.5 15.3438 0.5 14.5V1.5C0.5 0.6875 1.15625 0 2 0H7.5V4C7.5 4.5625 7.9375 5 8.5 5ZM8.46875 9.21875L7.25 10.4688V7.25C7.25 6.84375 6.90625 6.5 6.5 6.5C6.0625 6.5 5.75 6.84375 5.75 7.25V10.4688L4.5 9.21875C4.375 9.09375 4.1875 9 4 9C3.78125 9 3.59375 9.09375 3.46875 9.21875C3.15625 9.53125 3.15625 10 3.46875 10.2812L5.96875 12.7812C6.25 13.0938 6.71875 13.0938 7 12.7812L9.5 10.2812C9.8125 10 9.8125 9.53125 9.5 9.21875C9.21875 8.9375 8.75 8.9375 8.46875 9.21875Z" fill="#F28B34"/>
</svg>
