<svg width="20" height="15" viewBox="0 0 20 15" fill="none" xmlns="http://www.w3.org/2000/svg">
<path d="M10 11.25C9.33594 11.25 8.67188 11.0547 8.125 10.625L0 4.29688V13.125C0 14.1797 0.820312 15 1.875 15H18.125C19.1406 15 20 14.1797 20 13.125V4.29688L11.8359 10.625C11.2891 11.0547 10.625 11.25 10 11.25ZM0.625 3.20312L8.90625 9.64844C9.53125 10.1172 10.4297 10.1172 11.0547 9.64844L19.3359 3.20312C19.7266 2.89062 20 2.38281 20 1.875C20 0.859375 19.1406 0 18.125 0H1.875C0.820312 0 0 0.859375 0 1.875C0 2.38281 0.234375 2.89062 0.625 3.20312Z" fill="#FCFCFC"/>
</svg>
