<svg width="136" height="136" viewBox="0 0 136 136" fill="none" xmlns="http://www.w3.org/2000/svg">
<g filter="url(#filter0_d)">
<circle cx="68" cy="68" r="60" fill="#F28B34"/>
</g>
<circle cx="68" cy="68" r="54" stroke="white" stroke-width="2"/>
<path d="M35.512 66.696C35.848 66.696 36.004 66.444 36.004 66.204C36.004 65.952 35.848 65.712 35.512 65.712H34.18V64.14H35.8C36.124 64.14 36.292 63.9 36.292 63.648C36.292 63.408 36.124 63.168 35.8 63.168H34.18V61.668H34.888C35.212 61.668 35.38 61.428 35.38 61.176C35.38 60.936 35.212 60.696 34.888 60.696H28.78C29.284 59.928 29.344 59.76 29.344 59.652C29.344 59.328 29.02 59.088 28.72 59.088C28.552 59.088 28.384 59.172 28.288 59.364C27.796 60.372 27.208 61.152 26.332 61.908C26.176 62.04 26.116 62.184 26.116 62.316C26.116 62.604 26.404 62.844 26.716 62.844C26.968 62.844 27.22 62.688 27.916 61.86V63.168H26.26C25.936 63.168 25.756 63.432 25.756 63.672C25.756 63.912 25.912 64.14 26.26 64.14H27.916V65.712H26.5C26.164 65.712 25.984 65.976 25.984 66.228C25.984 66.468 26.152 66.696 26.5 66.696H35.512ZM35.908 69.036C35.908 68.412 34.54 67.188 34.036 67.188C33.724 67.188 33.424 67.404 33.424 67.644C33.424 67.752 33.472 67.848 33.592 67.944C34.024 68.304 34.468 68.784 34.732 69.336C34.852 69.576 35.044 69.672 35.248 69.672C35.572 69.672 35.908 69.408 35.908 69.036ZM33.16 69.144C33.16 68.868 32.62 67.188 31.852 67.188C31.576 67.188 31.324 67.356 31.324 67.608C31.324 67.68 31.348 67.752 31.396 67.836C31.636 68.208 31.864 68.664 31.984 69.288C32.044 69.612 32.272 69.756 32.524 69.756C32.824 69.756 33.16 69.528 33.16 69.144ZM30.712 69.132C30.712 68.568 30.544 67.812 30.28 67.416C30.172 67.26 29.98 67.188 29.788 67.188C29.536 67.188 29.284 67.32 29.284 67.572C29.284 67.62 29.296 67.68 29.32 67.74C29.464 68.112 29.548 68.604 29.548 69.108C29.548 69.144 29.548 69.18 29.548 69.216C29.548 69.228 29.548 69.228 29.548 69.24C29.548 69.6 29.8 69.78 30.064 69.78C30.376 69.78 30.712 69.552 30.712 69.132ZM26.836 69.84C27.64 69.84 28.648 68.328 28.648 67.692C28.648 67.38 28.348 67.188 28.06 67.188C27.832 67.188 27.604 67.308 27.532 67.596C27.412 68.064 26.86 68.604 26.536 68.808C26.296 68.964 26.2 69.144 26.2 69.312C26.2 69.6 26.476 69.84 26.836 69.84ZM33.196 63.168H32.332V61.668H33.196V63.168ZM31.456 63.168H30.604V61.668H31.456V63.168ZM33.196 65.712H32.332V64.14H33.196V65.712ZM29.716 63.168H28.888V61.668H29.716V63.168ZM31.456 65.712H30.604V64.14H31.456V65.712ZM29.716 65.712H28.888V64.14H29.716V65.712ZM44.632 62.448C44.932 62.448 45.172 62.16 45.172 61.848C45.172 61.692 45.124 61.536 44.992 61.392C44.812 61.2 43.912 60.516 43.504 60.516C43.18 60.516 42.916 60.78 42.916 61.032C42.916 61.164 42.976 61.284 43.132 61.368C43.432 61.536 43.9 61.872 44.236 62.244C44.368 62.388 44.5 62.448 44.632 62.448ZM45.7 69.336C45.7 69.648 45.988 69.804 46.276 69.804C46.564 69.804 46.852 69.648 46.852 69.336L46.828 66.24L48.244 65.844C48.508 65.772 48.628 65.568 48.628 65.364C48.628 65.1 48.424 64.824 48.112 64.824C48.064 64.824 48.004 64.836 47.944 64.848L46.828 65.16L46.852 59.796C46.852 59.46 46.552 59.28 46.264 59.28C45.976 59.28 45.7 59.448 45.7 59.796L45.724 65.472L42.388 66.396C42.112 66.48 41.98 66.696 41.98 66.912C41.98 67.176 42.172 67.428 42.484 67.428C42.544 67.428 42.604 67.428 42.676 67.404L45.724 66.552L45.7 69.336ZM44.524 64.836C44.812 64.836 45.052 64.56 45.052 64.248C45.052 64.08 44.98 63.9 44.812 63.756C44.596 63.576 43.768 63.048 43.3 63.048C42.952 63.048 42.7 63.3 42.7 63.54C42.7 63.684 42.784 63.828 42.976 63.924C43.264 64.068 43.768 64.356 44.152 64.68C44.272 64.788 44.404 64.836 44.524 64.836ZM39.004 62.544C39.28 62.544 39.556 62.316 39.556 61.98C39.556 61.704 38.956 60.504 38.416 60.504C38.14 60.504 37.852 60.696 37.852 60.948C37.852 61.02 37.888 61.116 37.96 61.2C38.092 61.356 38.44 61.86 38.608 62.268C38.692 62.46 38.848 62.544 39.004 62.544ZM40.78 69.348C40.78 69.348 40.732 67.176 40.72 65.424C40.948 65.616 41.2 65.904 41.416 66.192C41.524 66.336 41.668 66.396 41.8 66.396C42.076 66.396 42.352 66.132 42.352 65.82C42.352 65.364 41.248 64.596 40.96 64.596C40.876 64.596 40.792 64.62 40.72 64.656V64.044L42.004 64.068H42.016C42.328 64.068 42.496 63.804 42.496 63.552C42.496 63.3 42.328 63.048 42.004 63.048H40.732L40.744 62.28C40.816 62.448 40.996 62.556 41.188 62.556C41.32 62.556 41.452 62.496 41.56 62.376C41.956 61.92 42.436 61.2 42.436 60.972C42.436 60.684 42.136 60.456 41.872 60.456C41.716 60.456 41.572 60.528 41.488 60.708C41.32 61.08 40.996 61.596 40.804 61.872C40.78 61.908 40.756 61.944 40.744 61.98C40.756 60.816 40.78 59.82 40.78 59.82V59.808C40.78 59.46 40.492 59.28 40.204 59.28C39.916 59.28 39.628 59.46 39.628 59.808V59.82L39.664 63.048H38.32C37.972 63.048 37.792 63.324 37.792 63.588C37.792 63.828 37.948 64.068 38.308 64.068H38.32L39.676 64.044V64.08C39.112 65.1 38.248 66.132 37.612 66.672C37.468 66.792 37.408 66.924 37.408 67.056C37.408 67.344 37.684 67.596 37.996 67.596C38.188 67.596 38.584 67.512 39.676 65.736L39.628 69.348V69.36C39.628 69.684 39.916 69.852 40.204 69.852C40.492 69.852 40.78 69.684 40.78 69.36V69.348ZM55.576 62.268C56.092 62.304 56.596 62.448 57.064 62.748C58.252 63.504 58.576 65.076 57.724 66.42C57.328 67.044 56.404 67.56 55.492 67.764C54.46 68.004 54.832 69.216 55.888 68.94C57.076 68.628 58.252 67.884 58.816 66.96C59.86 65.244 59.56 63.036 57.7 61.92C56.188 61.008 53.992 61.176 52.516 62.196C50.908 63.312 50.104 65.544 50.86 67.032C51.388 68.064 52.396 68.532 53.32 67.68C54.472 66.612 55.552 64.344 55.744 62.82C55.78 62.58 55.708 62.388 55.576 62.268ZM54.628 62.328C54.568 62.424 54.532 62.556 54.52 62.7C54.4 63.996 53.56 65.904 52.66 66.696C52.36 66.96 52.048 66.78 51.868 66.432C51.364 65.508 51.964 63.912 53.08 63.048C53.536 62.7 54.076 62.448 54.628 62.328ZM70.78 61.116C71.152 61.116 71.344 60.852 71.344 60.588C71.344 60.312 71.152 60.048 70.78 60.048H66.868C66.508 60.048 66.316 60.324 66.316 60.6C66.316 60.864 66.496 61.116 66.868 61.116H70.78ZM70.132 66.372C70.12 65.604 70.12 64.728 70.12 63.804H71.548C71.92 63.804 72.112 63.54 72.112 63.288C72.112 63.024 71.92 62.76 71.548 62.76H66.46C66.1 62.76 65.908 63.036 65.908 63.3C65.908 63.552 66.088 63.804 66.46 63.804H69.004C69.004 65.196 68.98 66.672 68.98 67.836C68.98 68.364 68.608 68.52 68.14 68.52C67.9 68.52 67.636 68.484 67.384 68.436C67.348 68.436 67.312 68.424 67.288 68.424C66.976 68.424 66.808 68.7 66.808 68.988C66.808 69.516 67.18 69.648 68.092 69.648C69.664 69.648 70.156 68.76 70.156 68.064C70.156 68.052 70.156 68.052 70.156 68.04L70.132 66.372ZM65.5 60.42C65.608 60.288 65.656 60.156 65.656 60.024C65.656 59.7 65.368 59.424 65.056 59.424C64.9 59.424 64.732 59.508 64.6 59.688C63.952 60.612 63.196 61.188 62.272 61.704C61.996 61.86 61.888 62.064 61.888 62.268C61.888 62.568 62.14 62.844 62.476 62.844C63.064 62.844 64.924 61.128 65.5 60.42ZM63.472 69.264C63.472 69.276 63.472 69.276 63.472 69.288C63.472 69.624 63.748 69.792 64.036 69.792C64.324 69.792 64.624 69.612 64.636 69.264L64.696 64.068C65.86 62.94 65.92 62.688 65.92 62.52C65.92 62.196 65.62 61.908 65.308 61.908C65.152 61.908 64.996 61.98 64.876 62.148C64.06 63.312 63.1 64.128 62.044 64.716C61.816 64.836 61.732 65.028 61.732 65.22C61.732 65.52 61.96 65.808 62.296 65.808C62.428 65.808 62.644 65.772 63.58 65.04L63.472 69.264ZM83.74 62.7C84.076 62.7 84.232 62.436 84.232 62.184C84.232 61.92 84.076 61.668 83.74 61.668L80.428 61.68C80.716 60.588 80.86 59.808 80.86 59.736C80.86 59.424 80.572 59.232 80.284 59.232C80.008 59.232 79.744 59.388 79.696 59.736C79.516 61.104 79.144 62.4 78.688 63.396C78.64 63.204 78.484 63.048 78.22 63.048H77.272V61.188H78.544C78.892 61.188 79.06 60.936 79.06 60.684C79.06 60.432 78.892 60.18 78.544 60.18H74.488C74.152 60.18 73.972 60.432 73.972 60.684C73.972 60.936 74.152 61.188 74.488 61.188H76.24V66.972C76.012 67.044 75.772 67.116 75.532 67.176V63.036C75.532 62.712 75.268 62.544 75.016 62.544C74.752 62.544 74.5 62.712 74.5 63.036V67.428C74.392 67.452 74.296 67.464 74.188 67.488C73.84 67.56 73.684 67.788 73.684 68.028C73.684 68.292 73.888 68.556 74.236 68.556C74.656 68.556 77.5 67.74 78.82 67.068C79.048 66.948 79.144 66.768 79.144 66.588C79.144 66.348 78.964 66.12 78.7 66.12C78.628 66.12 78.556 66.132 78.472 66.168C78.1 66.324 77.704 66.48 77.272 66.636V64.044H78.22C78.28 64.044 78.328 64.032 78.376 64.02C78.352 64.068 78.316 64.116 78.292 64.164C78.232 64.26 78.208 64.356 78.208 64.452C78.208 64.74 78.46 64.956 78.748 64.956C78.94 64.956 79.144 64.848 79.276 64.596C79.348 64.464 79.408 64.332 79.48 64.2C79.684 65.052 80.032 65.928 80.524 66.744C79.852 67.56 78.928 68.208 77.668 68.676C77.404 68.772 77.284 68.964 77.284 69.168C77.284 69.468 77.548 69.792 77.92 69.792C78.22 69.792 79.924 69.072 81.16 67.656C82.288 69.06 83.548 69.696 83.836 69.696C84.196 69.696 84.472 69.348 84.472 69.024C84.472 68.82 84.376 68.628 84.136 68.52C83.14 68.064 82.396 67.476 81.82 66.78C82.588 65.568 82.984 64.164 83.116 62.7H83.74ZM81.988 62.7C81.88 63.84 81.628 64.872 81.148 65.784C80.644 64.86 80.368 63.804 80.224 62.688L81.988 62.7ZM89.068 60.516C89.392 60.516 89.56 60.276 89.56 60.036C89.56 59.796 89.392 59.556 89.068 59.556H86.596C86.272 59.556 86.116 59.796 86.116 60.036C86.116 60.276 86.272 60.516 86.596 60.516H89.068ZM93.46 69.372L93.424 66.792C93.592 67.02 95.308 69.192 95.98 69.192C96.316 69.192 96.592 68.88 96.592 68.568C96.592 68.388 96.508 68.208 96.304 68.088C95.368 67.512 94.468 66.768 93.724 65.832L95.728 65.868H95.74C96.076 65.868 96.232 65.64 96.232 65.4C96.232 65.16 96.064 64.908 95.728 64.908L93.412 64.932V64.152C93.772 64.152 94.108 64.14 94.372 64.116C95.092 64.068 95.56 63.576 95.596 63.024C95.62 62.724 95.62 62.388 95.62 62.052C95.62 61.584 95.608 61.116 95.596 60.684C95.572 60.168 95.14 59.688 94.372 59.664C93.952 59.64 93.436 59.64 92.932 59.64C92.416 59.64 91.924 59.64 91.528 59.664C90.664 59.7 90.34 60.216 90.316 60.696C90.304 61.068 90.292 61.476 90.292 61.884C90.292 62.28 90.304 62.676 90.316 63.036C90.352 63.636 90.724 64.08 91.516 64.116C91.768 64.128 92.092 64.14 92.416 64.152L92.428 64.932L90.328 64.908C90.004 64.908 89.848 65.148 89.848 65.4C89.848 65.628 90.004 65.868 90.316 65.868H90.328L92.044 65.832C91.456 66.828 90.664 67.704 89.608 68.376C89.536 68.424 89.464 68.472 89.428 68.532C89.428 68.496 89.44 68.472 89.44 68.436C89.452 68.172 89.452 67.884 89.452 67.596C89.452 67.296 89.452 67.008 89.44 66.732C89.428 66.216 88.948 65.904 88.516 65.88C88.336 65.868 88.036 65.856 87.724 65.856C87.412 65.856 87.088 65.868 86.848 65.88C86.296 65.904 86.008 66.336 85.996 66.792C85.996 67.056 85.984 67.32 85.984 67.584C85.984 67.86 85.996 68.136 85.996 68.448C86.008 68.976 86.344 69.36 86.86 69.396C87.064 69.408 87.376 69.42 87.688 69.42C88.672 69.42 89.104 69.36 89.344 68.856C89.356 69.108 89.572 69.336 89.86 69.336C90.412 69.336 91.732 67.944 92.404 66.84L92.368 69.36V69.372C92.368 69.696 92.644 69.864 92.92 69.864C93.184 69.864 93.46 69.708 93.46 69.384V69.372ZM89.5 62.16C89.848 62.16 90.016 61.908 90.016 61.668C90.016 61.416 89.848 61.176 89.5 61.176H86.14C85.804 61.176 85.624 61.416 85.624 61.668C85.624 61.908 85.804 62.16 86.14 62.16H89.5ZM88.972 63.72C89.296 63.72 89.464 63.48 89.464 63.24C89.464 63 89.296 62.76 88.972 62.76H86.62C86.296 62.76 86.14 63 86.14 63.24C86.14 63.48 86.296 63.72 86.62 63.72H88.972ZM88.972 65.268C89.296 65.268 89.464 65.028 89.464 64.788C89.464 64.548 89.296 64.308 88.972 64.308H86.62C86.296 64.308 86.14 64.548 86.14 64.788C86.14 65.028 86.296 65.268 86.62 65.268H88.972ZM93.436 61.476V60.456C94.312 60.456 94.576 60.456 94.588 60.888C94.588 61.068 94.6 61.272 94.6 61.476H93.436ZM94.6 62.268C94.6 63.3 94.6 63.312 93.412 63.312L93.424 62.268H94.6ZM92.404 61.476H91.3C91.3 60.456 91.336 60.456 92.392 60.456L92.404 61.476ZM92.416 63.312L91.828 63.3C91.3 63.276 91.3 63.048 91.3 62.268H92.404L92.416 63.312ZM88.48 68.184C88.48 68.484 88.024 68.484 87.784 68.484C86.98 68.484 86.956 68.412 86.944 68.196C86.944 68.016 86.932 67.812 86.932 67.62C86.932 66.756 86.932 66.744 87.7 66.744C88.252 66.744 88.456 66.768 88.48 67.068C88.492 67.236 88.492 67.44 88.492 67.632C88.492 67.824 88.492 68.016 88.48 68.184ZM107.656 60.732C108.016 60.732 108.184 60.492 108.184 60.264C108.184 60.024 108.016 59.796 107.656 59.796H103.444C103.096 59.796 102.928 60.024 102.928 60.264C102.928 60.492 103.096 60.732 103.444 60.732H104.848C104.812 60.972 104.764 61.14 104.716 61.344L104.596 61.356C103.768 61.392 103.456 61.812 103.444 62.244C103.432 62.748 103.42 63.288 103.42 63.816C103.42 64.344 103.432 64.86 103.444 65.316C103.456 65.76 103.732 66.108 104.272 66.216C103.6 66.888 102.7 67.128 102.544 67.164C102.232 67.248 102.1 67.464 102.1 67.68C102.1 67.932 102.304 68.184 102.628 68.184C103.108 68.184 105.076 67.2 105.076 66.636C105.076 66.492 105.004 66.36 104.884 66.264C104.992 66.264 105.1 66.264 105.208 66.264C105.424 66.264 105.64 66.264 105.856 66.264C105.724 66.36 105.64 66.528 105.64 66.684C105.64 66.816 105.688 66.936 105.808 67.02C106.24 67.332 107.26 68.052 107.764 68.052C108.1 68.052 108.304 67.764 108.304 67.488C108.304 67.272 108.184 67.068 107.908 66.984C107.404 66.84 106.888 66.54 106.444 66.252C107.104 66.204 107.536 65.784 107.56 65.304C107.584 64.848 107.596 64.32 107.596 63.78C107.596 63.252 107.584 62.712 107.56 62.232C107.512 61.428 106.852 61.332 105.796 61.332C105.856 61.152 105.916 60.948 105.976 60.732H107.656ZM102.7 62.424C102.712 62.232 102.712 62.028 102.712 61.824C102.712 61.416 102.7 60.996 102.664 60.612C102.628 60.12 102.148 59.664 101.596 59.64C101.236 59.628 100.876 59.616 100.516 59.616C100.156 59.616 99.796 59.628 99.424 59.64C98.728 59.664 98.356 60.168 98.332 60.696C98.32 61.092 98.296 61.536 98.296 61.956C98.296 63.42 98.716 63.48 100.492 63.48C100.876 63.48 101.26 63.468 101.62 63.444C102.256 63.408 102.676 63.048 102.7 62.424ZM102.304 66.672C102.604 66.672 102.76 66.444 102.76 66.216C102.76 65.988 102.604 65.76 102.304 65.76H101.128V64.896H102.652C102.952 64.896 103.108 64.668 103.108 64.44C103.108 64.212 102.952 63.984 102.652 63.984H98.344C98.032 63.984 97.876 64.212 97.876 64.44C97.876 64.668 98.032 64.896 98.344 64.896H100.096V67.536C99.808 67.284 99.58 66.972 99.424 66.588C99.436 66.504 99.496 65.952 99.496 65.724C99.496 65.412 99.22 65.256 98.956 65.256C98.704 65.256 98.464 65.4 98.464 65.688V65.7C98.464 65.76 98.464 65.82 98.464 65.88C98.464 66.996 98.152 68.208 97.552 69C97.468 69.108 97.444 69.204 97.444 69.288C97.444 69.552 97.72 69.732 98.008 69.732C98.404 69.732 98.776 69.396 99.184 67.848C100.372 69.456 102.496 69.672 105.052 69.672C105.952 69.672 106.888 69.624 107.74 69.54C108.136 69.504 108.328 69.216 108.328 68.94C108.328 68.664 108.136 68.4 107.812 68.4C107.788 68.4 107.776 68.4 107.764 68.4C106.66 68.472 105.352 68.568 104.152 68.568C102.28 68.568 101.608 68.328 101.128 68.148V66.672H102.304ZM106.54 62.712H104.44C104.44 62.628 104.452 62.532 104.452 62.448C104.476 62.1 104.68 62.052 105.52 62.052C106.36 62.052 106.516 62.088 106.528 62.436L106.54 62.712ZM106.552 64.092H104.428V63.432H106.552V64.092ZM106.54 64.824C106.54 64.932 106.528 65.04 106.528 65.148C106.504 65.544 106.24 65.544 105.496 65.544C104.476 65.544 104.464 65.4 104.452 65.16L104.44 64.824H106.54ZM101.692 61.116H99.268V60.96C99.292 60.504 99.388 60.48 100.504 60.48C101.548 60.48 101.656 60.48 101.68 60.96L101.692 61.116ZM101.704 62.22C101.692 62.616 101.548 62.64 100.456 62.64C99.424 62.64 99.268 62.556 99.256 62.232V61.944H101.704V62.22ZM35.092 83.364C35.08 84.048 35.068 84.648 35.056 85.068C35.032 86.052 35.692 86.7 36.748 86.832C37.864 86.964 38.92 86.964 40.012 86.712C41.368 86.4 40.84 85.08 39.772 85.416C38.92 85.68 37.828 85.74 37.192 85.668C36.472 85.584 36.172 85.284 36.196 84.696C36.22 84.252 36.244 83.592 36.28 82.86C37.492 82.356 38.68 81.876 39.1 81.744C39.328 81.672 39.484 81.66 39.268 81.984C38.932 82.512 38.476 82.932 38.02 83.352C37.36 83.964 38.14 84.876 38.932 84.156C39.676 83.484 40.36 82.5 40.768 81.636C41.152 80.832 40.24 80.208 39.352 80.52C38.776 80.724 37.564 81.192 36.328 81.696C36.352 80.88 36.388 80.076 36.388 79.44C36.388 78.816 35.164 78.684 35.164 79.488C35.164 80.208 35.152 81.204 35.128 82.188C33.904 82.68 32.86 83.112 32.62 83.184C31.876 83.424 32.236 84.564 33.064 84.216C33.268 84.132 34.096 83.784 35.092 83.364ZM51.028 80.232C51.16 79.932 51.064 79.5 50.608 79.284C49.612 78.804 48.508 78.636 47.824 78.54C46.876 78.396 46.552 79.56 47.392 79.668C48.208 79.776 49.348 80.088 50.152 80.508C50.548 80.712 50.896 80.532 51.028 80.232ZM50.308 82.92C50.464 82.62 50.416 82.2 50.008 81.972C49.36 81.624 48.28 81.324 47.644 81.228C46.864 81.108 46.456 82.212 47.392 82.392C48.028 82.512 48.808 82.764 49.384 83.124C49.792 83.376 50.152 83.208 50.308 82.92ZM51.532 87.024C51.736 86.748 51.784 86.244 51.412 85.932C50.356 85.056 48.424 84.384 47.476 84.12C46.528 83.856 46.204 84.972 46.936 85.248C47.44 85.44 48.016 85.644 48.628 85.932C49.24 86.22 49.888 86.58 50.548 87.12C50.908 87.408 51.328 87.3 51.532 87.024ZM61.96 82.176C62.884 82.176 63.808 82.188 64.696 82.224C65.176 82.248 65.428 81.948 65.44 81.648C65.452 81.348 65.236 81.048 64.744 81.036C63.844 81.024 62.908 81.024 61.948 81.036C61.948 80.472 61.96 79.896 61.9 79.188C61.84 78.48 60.616 78.372 60.652 79.272C60.664 79.68 60.688 80.352 60.7 81.048C59.572 81.06 58.456 81.084 57.388 81.12C56.44 81.156 56.572 82.308 57.424 82.272C58.504 82.236 59.608 82.188 60.712 82.176C60.628 83.904 59.68 85.512 57.592 86.292C56.812 86.58 57.148 87.768 58.156 87.372C60.616 86.4 61.888 84.396 61.96 82.176ZM76.804 83.04C77.212 83.04 77.416 82.74 77.416 82.452C77.416 82.152 77.212 81.852 76.804 81.852H69.268C68.86 81.852 68.632 82.164 68.632 82.464C68.632 82.752 68.836 83.04 69.268 83.04H76.804ZM88.756 81.384C88.756 81.54 88.756 81.696 88.756 81.876C88.756 82.632 88.768 83.544 88.768 84.408C88.768 84.972 88.756 85.524 88.744 86.004C88.732 86.592 88.456 86.736 88.06 86.736C87.868 86.736 87.652 86.7 87.412 86.664C87.376 86.664 87.352 86.652 87.316 86.652C87.004 86.652 86.824 86.916 86.824 87.18C86.824 87.732 87.304 87.84 88.12 87.84C89.476 87.84 89.896 87.084 89.896 86.22C89.896 85.8 89.884 85.296 89.884 84.72C89.884 83.184 89.86 81.216 89.86 79.416C89.86 79.116 89.86 78.816 89.86 78.528C89.86 78 89.5 77.544 88.6 77.496C88.396 77.484 88.06 77.484 87.7 77.484C87.208 77.484 86.692 77.484 86.464 77.496C85.852 77.52 85.408 77.892 85.384 78.42C85.372 78.828 85.36 79.248 85.36 79.656C85.36 79.908 85.36 80.16 85.372 80.388C85.408 81.396 86.356 81.408 87.868 81.408C88.216 81.408 88.54 81.396 88.756 81.384ZM87.508 84.792C87.844 84.792 88 84.564 88 84.336C88 84.108 87.844 83.88 87.508 83.88H86.548V82.8H87.16C87.496 82.8 87.652 82.572 87.652 82.344C87.652 82.116 87.496 81.888 87.16 81.888H82.672C82.336 81.888 82.144 82.128 82.144 82.356C82.144 82.584 82.312 82.8 82.672 82.8H83.404C83.416 83.076 83.428 83.376 83.428 83.688V83.88H82.456C82.12 83.88 81.928 84.12 81.928 84.348C81.928 84.576 82.096 84.792 82.456 84.792H83.392C83.308 85.608 83.02 86.268 82.072 86.472C81.844 86.52 81.724 86.712 81.724 86.916C81.724 87.156 81.892 87.408 82.228 87.408C82.3 87.408 82.372 87.396 82.456 87.372C83.812 86.964 84.292 86.076 84.424 84.792H85.492V86.748C85.492 87.084 85.756 87.252 86.02 87.252C86.284 87.252 86.548 87.084 86.548 86.748V84.792H87.508ZM81.304 81.384C81.52 81.396 81.82 81.408 82.144 81.408C84.568 81.408 84.58 81.132 84.58 79.656C84.58 79.248 84.568 78.828 84.556 78.42C84.532 77.892 84.064 77.52 83.452 77.496C83.224 77.484 82.732 77.484 82.252 77.484C80.92 77.484 80.188 77.52 80.188 78.624C80.164 81.156 80.188 85.128 80.104 87.348C80.104 87.36 80.104 87.36 80.104 87.372C80.104 87.696 80.392 87.876 80.668 87.876C80.956 87.876 81.256 87.696 81.256 87.348C81.292 85.632 81.304 83.82 81.304 82.476C81.304 82.068 81.304 81.696 81.304 81.384ZM86.428 79.068C86.428 78.948 86.44 78.828 86.44 78.72C86.464 78.36 86.596 78.348 87.592 78.348C88.684 78.348 88.732 78.36 88.732 79.068H86.428ZM88.756 80.544C88.588 80.556 88.18 80.556 87.784 80.556C86.716 80.556 86.452 80.556 86.44 80.184C86.44 80.076 86.428 79.956 86.428 79.836H88.756V80.544ZM81.304 79.068C81.304 78.972 81.316 78.888 81.316 78.804C81.34 78.372 81.424 78.348 82.42 78.348C83.344 78.348 83.476 78.36 83.5 78.708C83.5 78.816 83.512 78.936 83.512 79.068H81.304ZM83.512 79.836C83.512 79.956 83.5 80.076 83.5 80.184C83.488 80.508 83.404 80.556 82.216 80.556C81.844 80.556 81.484 80.556 81.304 80.544V79.836H83.512ZM85.492 83.88H84.46V83.628C84.46 83.568 84.46 83.52 84.46 83.46C84.46 83.304 84.46 83.148 84.46 82.98C84.46 82.92 84.46 82.86 84.46 82.8H85.492V83.88ZM100.624 78.384C100.624 78.492 100.624 78.588 100.624 78.696C100.624 79.656 100.576 79.716 100.204 79.74C99.988 79.752 99.628 79.764 99.208 79.764V77.76C99.208 77.412 98.92 77.244 98.632 77.244C98.344 77.244 98.068 77.4 98.068 77.736V79.764C96.796 79.764 96.7 79.752 96.676 79.356C96.676 79.356 96.676 79.356 96.676 78.372V78.36C96.676 78.072 96.424 77.94 96.16 77.94C95.884 77.94 95.596 78.084 95.584 78.372C95.584 78.552 95.572 78.768 95.572 78.972C95.572 80.64 95.752 80.64 98.62 80.64C99.316 80.64 100.012 80.628 100.444 80.616C101.764 80.568 101.764 79.776 101.764 78.828C101.764 78.684 101.764 78.54 101.752 78.384C101.74 78.072 101.452 77.928 101.176 77.928C100.9 77.928 100.624 78.072 100.624 78.372V78.384ZM101.752 86.592C101.08 86.604 100.288 86.604 99.52 86.604V85.812H101.164C101.464 85.812 101.608 85.62 101.608 85.428C101.608 85.236 101.464 85.044 101.164 85.044H99.52V84.336H101.164C101.464 84.336 101.608 84.144 101.608 83.952C101.608 83.76 101.464 83.568 101.164 83.568H99.52V82.896H101.548C101.848 82.896 101.992 82.68 101.992 82.476C101.992 82.26 101.848 82.044 101.572 82.044C100.96 82.032 100.276 82.032 99.58 82.032C99.76 81.732 99.94 81.384 99.94 81.264C99.94 81 99.64 80.82 99.352 80.82C99.172 80.82 98.992 80.892 98.92 81.084C98.74 81.528 98.632 81.78 98.5 82.032C98.068 82.032 97.636 82.044 97.264 82.044C97.612 81.492 97.636 81.396 97.636 81.3C97.636 81.012 97.336 80.796 97.048 80.796C96.856 80.796 96.664 80.88 96.556 81.108C96.064 82.116 95.536 82.86 94.792 83.448C94.636 83.568 94.576 83.712 94.576 83.856C94.576 84.12 94.816 84.36 95.116 84.36C95.296 84.36 95.404 84.336 95.824 83.916C95.8 84.576 95.788 85.38 95.788 86.028C95.788 86.724 95.788 87.468 96.952 87.492C97.624 87.504 98.476 87.516 99.34 87.516C100.192 87.516 101.056 87.504 101.752 87.492C102.028 87.48 102.16 87.252 102.16 87.024C102.16 86.808 102.028 86.592 101.764 86.592H101.752ZM93.088 87.336C93.088 87.696 93.364 87.864 93.652 87.864C93.94 87.864 94.228 87.684 94.24 87.324L94.36 79.98C94.828 79.188 95.392 78.096 95.392 77.88C95.392 77.544 95.056 77.292 94.732 77.292C94.516 77.292 94.312 77.4 94.216 77.664C93.604 79.308 92.668 80.736 91.552 81.84C91.42 81.972 91.36 82.128 91.36 82.26C91.36 82.548 91.6 82.788 91.9 82.788C92.248 82.788 92.548 82.5 93.208 81.66L93.088 87.324V87.336ZM98.464 83.568H96.856C96.856 83.46 96.868 83.364 96.868 83.28C96.88 82.992 97.036 82.896 97.216 82.896H98.464V83.568ZM98.464 85.044H96.832C96.832 84.804 96.844 84.564 96.844 84.336H98.464V85.044ZM98.464 86.604C98.02 86.604 97.612 86.604 97.276 86.592C96.94 86.58 96.832 86.412 96.832 86.172V85.8H98.464V86.604Z" fill="white"/>
<path d="M71.59 99.2949L67 103.875L62.41 99.2949L61 100.705L67 106.705L73 100.705L71.59 99.2949Z" fill="white"/>
<rect x="30.5" y="34" width="74" height="18" rx="9" fill="white"/>
<path d="M41.9014 42.38C42.4514 42.38 43.0014 42.4 43.5214 42.42C44.2714 42.46 44.3214 41.48 43.5514 41.47C43.0214 41.46 42.4614 41.47 41.8914 41.47C41.8814 40.9 41.8714 40.41 41.8714 40.13C41.8714 39.5 40.8614 39.43 40.9014 40.17C40.9114 40.43 40.9314 40.91 40.9514 41.48C39.8714 41.49 38.7814 41.51 37.7814 41.55C37.0414 41.58 37.1414 42.5 37.8114 42.47C38.6514 42.44 39.5414 42.41 40.4314 42.39C39.5814 43.68 38.4614 44.78 37.0714 45.5C36.4414 45.83 36.9314 46.78 37.7614 46.25C39.1214 45.38 39.9514 44.58 41.0114 43.2C41.0414 44.25 41.0714 45.29 41.0814 45.88C41.0914 46.41 40.5614 46.35 40.1514 46.22C39.5214 46.02 39.1514 47.05 40.0614 47.21C41.6314 47.48 42.0614 46.85 42.0414 46.08C42.0314 45.81 42.0314 45.64 42.0114 45.33C41.9614 44.58 41.9214 43.43 41.9014 42.38ZM53.3114 41.87C53.7514 41.08 52.7214 40.66 52.4014 41.28C51.3914 43.24 49.3714 45.31 47.3614 45.82C46.5314 46.03 46.8514 47.17 47.7014 46.9C50.0014 46.17 52.0714 44.12 53.3114 41.87ZM49.1414 42.68C49.3014 42.45 49.3214 42.07 49.0114 41.85C48.5314 41.51 47.7814 41.24 47.2514 41.09C46.4914 40.88 46.2414 41.89 46.8414 42.03C47.3114 42.14 47.9514 42.43 48.3214 42.77C48.6314 43.05 48.9814 42.91 49.1414 42.68ZM60.8414 40.48C60.8414 40.24 60.6414 40.02 60.3014 40.02C59.2914 40.03 57.8914 40.03 56.9314 40.02C56.1614 40.01 56.2014 40.93 56.8614 40.95C57.9414 40.98 59.3214 40.95 60.2614 40.95C60.6714 40.95 60.8414 40.72 60.8414 40.48ZM61.4814 43.42C61.8914 42.44 61.4014 41.88 60.4014 41.87C59.0414 41.86 57.3614 41.87 56.0714 41.9C55.3014 41.92 55.3914 42.87 56.1014 42.84C57.1714 42.8 59.0314 42.77 60.0514 42.79C60.4314 42.8 60.4814 42.96 60.3814 43.23C59.9314 44.5 58.6614 45.71 56.6914 46.24C55.8914 46.45 56.2614 47.44 57.0814 47.19C59.5614 46.43 60.7814 45.09 61.4814 43.42ZM67.2386 43.27C67.2286 44.44 67.1886 46.07 67.1786 46.87C67.1686 47.69 68.2486 47.6 68.2286 46.84C68.1986 45.84 68.2186 43.22 68.2486 42.2C68.6786 41.7 69.1086 41.16 69.5586 40.56C69.9886 39.98 69.1086 39.34 68.6686 40.03C67.5386 41.81 65.6286 43.65 63.7886 44.55C63.1086 44.88 63.6286 45.9 64.5486 45.34C65.5886 44.71 66.4486 44.04 67.2386 43.27ZM80.0086 41.87C80.4486 41.08 79.4186 40.66 79.0986 41.28C78.0886 43.24 76.0686 45.31 74.0586 45.82C73.2286 46.03 73.5486 47.17 74.3986 46.9C76.6986 46.17 78.7686 44.12 80.0086 41.87ZM75.8386 42.68C75.9986 42.45 76.0186 42.07 75.7086 41.85C75.2286 41.51 74.4786 41.24 73.9486 41.09C73.1886 40.88 72.9386 41.89 73.5386 42.03C74.0086 42.14 74.6486 42.43 75.0186 42.77C75.3286 43.05 75.6786 42.91 75.8386 42.68ZM88.4786 42.32C88.4786 42.45 88.4786 42.58 88.4786 42.73C88.4786 43.36 88.4886 44.12 88.4886 44.84C88.4886 45.31 88.4786 45.77 88.4686 46.17C88.4586 46.66 88.2286 46.78 87.8986 46.78C87.7386 46.78 87.5586 46.75 87.3586 46.72C87.3286 46.72 87.3086 46.71 87.2786 46.71C87.0186 46.71 86.8686 46.93 86.8686 47.15C86.8686 47.61 87.2686 47.7 87.9486 47.7C89.0786 47.7 89.4286 47.07 89.4286 46.35C89.4286 46 89.4186 45.58 89.4186 45.1C89.4186 43.82 89.3986 42.18 89.3986 40.68C89.3986 40.43 89.3986 40.18 89.3986 39.94C89.3986 39.5 89.0986 39.12 88.3486 39.08C88.1786 39.07 87.8986 39.07 87.5986 39.07C87.1886 39.07 86.7586 39.07 86.5686 39.08C86.0586 39.1 85.6886 39.41 85.6686 39.85C85.6586 40.19 85.6486 40.54 85.6486 40.88C85.6486 41.09 85.6486 41.3 85.6586 41.49C85.6886 42.33 86.4786 42.34 87.7386 42.34C88.0286 42.34 88.2986 42.33 88.4786 42.32ZM87.4386 45.16C87.7186 45.16 87.8486 44.97 87.8486 44.78C87.8486 44.59 87.7186 44.4 87.4386 44.4H86.6386V43.5H87.1486C87.4286 43.5 87.5586 43.31 87.5586 43.12C87.5586 42.93 87.4286 42.74 87.1486 42.74H83.4086C83.1286 42.74 82.9686 42.94 82.9686 43.13C82.9686 43.32 83.1086 43.5 83.4086 43.5H84.0186C84.0286 43.73 84.0386 43.98 84.0386 44.24V44.4H83.2286C82.9486 44.4 82.7886 44.6 82.7886 44.79C82.7886 44.98 82.9286 45.16 83.2286 45.16H84.0086C83.9386 45.84 83.6986 46.39 82.9086 46.56C82.7186 46.6 82.6186 46.76 82.6186 46.93C82.6186 47.13 82.7586 47.34 83.0386 47.34C83.0986 47.34 83.1586 47.33 83.2286 47.31C84.3586 46.97 84.7586 46.23 84.8686 45.16H85.7586V46.79C85.7586 47.07 85.9786 47.21 86.1986 47.21C86.4186 47.21 86.6386 47.07 86.6386 46.79V45.16H87.4386ZM82.2686 42.32C82.4486 42.33 82.6986 42.34 82.9686 42.34C84.9886 42.34 84.9986 42.11 84.9986 40.88C84.9986 40.54 84.9886 40.19 84.9786 39.85C84.9586 39.41 84.5686 39.1 84.0586 39.08C83.8686 39.07 83.4586 39.07 83.0586 39.07C81.9486 39.07 81.3386 39.1 81.3386 40.02C81.3186 42.13 81.3386 45.44 81.2686 47.29C81.2686 47.3 81.2686 47.3 81.2686 47.31C81.2686 47.58 81.5086 47.73 81.7386 47.73C81.9786 47.73 82.2286 47.58 82.2286 47.29C82.2586 45.86 82.2686 44.35 82.2686 43.23C82.2686 42.89 82.2686 42.58 82.2686 42.32ZM86.5386 40.39C86.5386 40.29 86.5486 40.19 86.5486 40.1C86.5686 39.8 86.6786 39.79 87.5086 39.79C88.4186 39.79 88.4586 39.8 88.4586 40.39H86.5386ZM88.4786 41.62C88.3386 41.63 87.9986 41.63 87.6686 41.63C86.7786 41.63 86.5586 41.63 86.5486 41.32C86.5486 41.23 86.5386 41.13 86.5386 41.03H88.4786V41.62ZM82.2686 40.39C82.2686 40.31 82.2786 40.24 82.2786 40.17C82.2986 39.81 82.3686 39.79 83.1986 39.79C83.9686 39.79 84.0786 39.8 84.0986 40.09C84.0986 40.18 84.1086 40.28 84.1086 40.39H82.2686ZM84.1086 41.03C84.1086 41.13 84.0986 41.23 84.0986 41.32C84.0886 41.59 84.0186 41.63 83.0286 41.63C82.7186 41.63 82.4186 41.63 82.2686 41.62V41.03H84.1086ZM85.7586 44.4H84.8986V44.19C84.8986 44.14 84.8986 44.1 84.8986 44.05C84.8986 43.92 84.8986 43.79 84.8986 43.65C84.8986 43.6 84.8986 43.55 84.8986 43.5H85.7586V44.4ZM97.3686 39.82C97.3686 39.91 97.3686 39.99 97.3686 40.08C97.3686 40.88 97.3286 40.93 97.0186 40.95C96.8386 40.96 96.5386 40.97 96.1886 40.97V39.3C96.1886 39.01 95.9486 38.87 95.7086 38.87C95.4686 38.87 95.2386 39 95.2386 39.28V40.97C94.1786 40.97 94.0986 40.96 94.0786 40.63C94.0786 40.63 94.0786 40.63 94.0786 39.81V39.8C94.0786 39.56 93.8686 39.45 93.6486 39.45C93.4186 39.45 93.1786 39.57 93.1686 39.81C93.1686 39.96 93.1586 40.14 93.1586 40.31C93.1586 41.7 93.3086 41.7 95.6986 41.7C96.2786 41.7 96.8586 41.69 97.2186 41.68C98.3186 41.64 98.3186 40.98 98.3186 40.19C98.3186 40.07 98.3186 39.95 98.3086 39.82C98.2986 39.56 98.0586 39.44 97.8286 39.44C97.5986 39.44 97.3686 39.56 97.3686 39.81V39.82ZM98.3086 46.66C97.7486 46.67 97.0886 46.67 96.4486 46.67V46.01H97.8186C98.0686 46.01 98.1886 45.85 98.1886 45.69C98.1886 45.53 98.0686 45.37 97.8186 45.37H96.4486V44.78H97.8186C98.0686 44.78 98.1886 44.62 98.1886 44.46C98.1886 44.3 98.0686 44.14 97.8186 44.14H96.4486V43.58H98.1386C98.3886 43.58 98.5086 43.4 98.5086 43.23C98.5086 43.05 98.3886 42.87 98.1586 42.87C97.6486 42.86 97.0786 42.86 96.4986 42.86C96.6486 42.61 96.7986 42.32 96.7986 42.22C96.7986 42 96.5486 41.85 96.3086 41.85C96.1586 41.85 96.0086 41.91 95.9486 42.07C95.7986 42.44 95.7086 42.65 95.5986 42.86C95.2386 42.86 94.8786 42.87 94.5686 42.87C94.8586 42.41 94.8786 42.33 94.8786 42.25C94.8786 42.01 94.6286 41.83 94.3886 41.83C94.2286 41.83 94.0686 41.9 93.9786 42.09C93.5686 42.93 93.1286 43.55 92.5086 44.04C92.3786 44.14 92.3286 44.26 92.3286 44.38C92.3286 44.6 92.5286 44.8 92.7786 44.8C92.9286 44.8 93.0186 44.78 93.3686 44.43C93.3486 44.98 93.3386 45.65 93.3386 46.19C93.3386 46.77 93.3386 47.39 94.3086 47.41C94.8686 47.42 95.5786 47.43 96.2986 47.43C97.0086 47.43 97.7286 47.42 98.3086 47.41C98.5386 47.4 98.6486 47.21 98.6486 47.02C98.6486 46.84 98.5386 46.66 98.3186 46.66H98.3086ZM91.0886 47.28C91.0886 47.58 91.3186 47.72 91.5586 47.72C91.7986 47.72 92.0386 47.57 92.0486 47.27L92.1486 41.15C92.5386 40.49 93.0086 39.58 93.0086 39.4C93.0086 39.12 92.7286 38.91 92.4586 38.91C92.2786 38.91 92.1086 39 92.0286 39.22C91.5186 40.59 90.7386 41.78 89.8086 42.7C89.6986 42.81 89.6486 42.94 89.6486 43.05C89.6486 43.29 89.8486 43.49 90.0986 43.49C90.3886 43.49 90.6386 43.25 91.1886 42.55L91.0886 47.27V47.28ZM95.5686 44.14H94.2286C94.2286 44.05 94.2386 43.97 94.2386 43.9C94.2486 43.66 94.3786 43.58 94.5286 43.58H95.5686V44.14ZM95.5686 45.37H94.2086C94.2086 45.17 94.2186 44.97 94.2186 44.78H95.5686V45.37ZM95.5686 46.67C95.1986 46.67 94.8586 46.67 94.5786 46.66C94.2986 46.65 94.2086 46.51 94.2086 46.31V46H95.5686V46.67Z" fill="#F28B34"/>
<defs>
<filter id="filter0_d" x="0" y="0" width="136" height="136" filterUnits="userSpaceOnUse" color-interpolation-filters="sRGB">
<feFlood flood-opacity="0" result="BackgroundImageFix"/>
<feColorMatrix in="SourceAlpha" type="matrix" values="0 0 0 0 0 0 0 0 0 0 0 0 0 0 0 0 0 0 127 0" result="hardAlpha"/>
<feOffset/>
<feGaussianBlur stdDeviation="4"/>
<feColorMatrix type="matrix" values="0 0 0 0 0 0 0 0 0 0 0 0 0 0 0 0 0 0 0.2 0"/>
<feBlend mode="normal" in2="BackgroundImageFix" result="effect1_dropShadow"/>
<feBlend mode="normal" in="SourceGraphic" in2="effect1_dropShadow" result="shape"/>
</filter>
</defs>
</svg>
